# Blender v3.6.2 OBJ File: ''
# www.blender.org
mtllib homing thistle.mtl
o homing_thistle_mesh
v -0.003841 1.999135 0.039368
v 0.409345 2.036970 -0.025254
v 0.061602 2.062753 -0.372041
v 0.415211 2.151418 -0.371331
v 0.088867 2.163746 -0.537153
v 0.581492 2.127221 -0.045885
v 0.207005 2.344651 -0.587464
v -0.003841 2.347127 -0.620767
v -0.003841 2.481677 -0.626019
v 0.213633 2.479122 -0.591670
v -0.003841 2.564824 -0.619304
v 0.207514 2.705686 -0.562193
v 0.405842 2.554953 -0.486556
v 0.409819 2.471712 -0.491983
v 0.472687 2.331870 -0.415549
v 0.565514 2.460167 -0.336717
v 0.549495 2.687266 -0.314413
v 0.659040 2.529113 -0.139018
v 0.645077 2.312171 -0.150598
v 0.665476 2.445621 -0.141071
v 0.678472 2.296536 0.059667
v 0.699919 2.429497 0.075804
v 0.680119 2.657458 0.086502
v 0.659040 2.497175 0.290562
v 0.665475 2.413372 0.292680
v 0.524195 2.100399 0.314875
v 0.409345 2.036970 -0.025254
v 0.565513 2.398826 0.488326
v 0.549494 2.627649 0.487416
v 0.405842 2.471335 0.638100
v 0.596619 2.273853 0.364775
v 0.186080 2.004482 0.411722
v -0.003841 1.999135 0.039368
v -0.299650 2.010186 0.335002
v -0.096548 2.076948 0.630289
v 0.265207 2.081196 0.573150
v 0.397212 2.255609 0.610151
v 0.207005 2.248423 0.706799
v -0.109264 2.247185 0.723450
v -0.003841 2.377317 0.777627
v 0.213633 2.379870 0.743278
v -0.003841 2.461466 0.770847
v 0.207514 2.609227 0.735195
v 0.409819 2.387282 0.643591
v -0.003841 1.999135 0.039368
v 0.061602 2.062753 -0.372041
v -0.376581 2.046200 -0.149390
v -0.272889 2.159499 -0.480015
v 0.088867 2.163746 -0.537153
v -0.531876 2.140296 -0.221739
v -0.003841 2.347127 -0.620767
v -0.309790 2.341058 -0.539140
v -0.221315 2.479122 -0.591670
v -0.003841 2.481677 -0.626019
v -0.003841 2.564824 -0.619304
v -0.215196 2.705686 -0.562193
v -0.413524 2.554953 -0.486556
v -0.417501 2.471712 -0.491983
v -0.555843 2.326273 -0.340282
v -0.573195 2.460167 -0.336717
v -0.557176 2.687266 -0.314413
v -0.666722 2.529113 -0.139018
v -0.673157 2.445621 -0.141071
v -0.652759 2.312171 -0.150598
v -0.707601 2.429497 0.075804
v -0.687801 2.657458 0.086502
v -0.666722 2.497175 0.290562
v -0.589173 2.113473 0.139020
v -0.376581 2.046200 -0.149390
v -0.669456 2.288721 0.164800
v -0.673157 2.413372 0.292680
v -0.573195 2.398826 0.488326
v -0.557176 2.627649 0.487417
v -0.413524 2.471335 0.638100
v -0.555843 2.266800 0.459617
v -0.299650 2.010186 0.335002
v -0.003841 1.999135 0.039368
v -0.422892 2.089278 0.464466
v -0.096548 2.076948 0.630289
v -0.109264 2.247185 0.723450
v -0.404894 2.255609 0.610151
v -0.417501 2.387282 0.643591
v -0.221315 2.379870 0.743278
v -0.003841 2.377317 0.777627
v -0.215196 2.609227 0.735195
v -0.003841 2.461466 0.770847
v 0.492693 2.668905 -0.274396
v 0.549495 2.687266 -0.314413
v 0.591387 2.512185 -0.118234
v 0.659040 2.529113 -0.139018
v 0.364030 2.535385 -0.430302
v 0.405842 2.554953 -0.486556
v 0.549495 2.687266 -0.314413
v 0.492693 2.668905 -0.274396
v 0.364030 2.535385 -0.430302
v 0.185818 2.685436 -0.496739
v 0.207514 2.705686 -0.562193
v 0.405842 2.554953 -0.486556
v -0.003841 2.544248 -0.549502
v -0.003841 2.564824 -0.619304
v 0.207514 2.705686 -0.562193
v 0.185818 2.685436 -0.496739
v -0.215196 2.705686 -0.562193
v -0.003841 2.564824 -0.619304
v -0.003841 2.544248 -0.549502
v -0.193500 2.685436 -0.496739
v -0.371711 2.535388 -0.430302
v -0.413524 2.554953 -0.486556
v -0.413524 2.554953 -0.486556
v -0.371711 2.535388 -0.430302
v -0.557176 2.687266 -0.314413
v -0.500374 2.668903 -0.274395
v -0.599068 2.512185 -0.118234
v -0.666722 2.529113 -0.139018
v -0.687801 2.657458 0.086502
v -0.666722 2.529113 -0.139018
v -0.599068 2.512185 -0.118234
v -0.617589 2.642157 0.085364
v -0.599068 2.483505 0.267503
v -0.666722 2.497175 0.290562
v -0.599068 2.483505 0.267503
v -0.500374 2.615408 0.445124
v -0.557176 2.627649 0.487417
v -0.666722 2.497175 0.290562
v -0.557176 2.627649 0.487417
v -0.500374 2.615408 0.445124
v -0.371711 2.460302 0.579571
v -0.413524 2.471335 0.638100
v -0.413524 2.471335 0.638100
v -0.371711 2.460302 0.579571
v -0.215196 2.609227 0.735195
v -0.193500 2.598877 0.667467
v -0.003841 2.451440 0.698771
v -0.003841 2.461466 0.770847
v -0.215196 2.609227 0.735195
v -0.193500 2.598877 0.667467
v 0.185818 2.598877 0.667467
v 0.207514 2.609227 0.735195
v -0.003841 2.451440 0.698771
v -0.003841 2.461466 0.770847
v 0.364030 2.460302 0.579571
v 0.405842 2.471335 0.638100
v 0.207514 2.609227 0.735195
v 0.185818 2.598877 0.667467
v 0.364030 2.460302 0.579571
v 0.492692 2.615408 0.445123
v 0.549494 2.627649 0.487416
v 0.405842 2.471335 0.638100
v 0.591386 2.483505 0.267503
v 0.659040 2.497175 0.290562
v 0.549494 2.627649 0.487416
v 0.492692 2.615408 0.445123
v 0.659040 2.497175 0.290562
v 0.591386 2.483505 0.267503
v 0.680119 2.657458 0.086502
v 0.609908 2.642157 0.085364
v 0.680119 2.657458 0.086502
v 0.609908 2.642157 0.085364
v 0.591387 2.512185 -0.118234
v 0.659040 2.529113 -0.139018
v -0.887390 1.394088 -0.286303
v -0.945839 1.408927 -0.069089
v -1.004419 1.018978 0.006195
v -0.876687 1.020234 -0.526392
v -0.837299 0.756428 -0.473717
v -0.948856 0.776617 -0.000355
v -0.510661 1.020234 -0.892418
v -0.458626 0.647012 -0.815150
v -0.810765 1.412159 -0.488332
v -0.759898 1.338930 -0.563833
v -0.758761 1.610261 -0.250652
v -0.472601 1.412159 -0.826496
v -0.623034 1.761944 -0.379946
v -0.863988 0.616190 -0.289027
v -0.934541 0.672153 -0.026392
v -0.717768 0.347730 -0.026392
v -0.623034 0.347730 -0.379946
v -0.393345 0.130957 -0.026392
v -0.364215 1.761944 -0.638765
v -0.342075 1.978716 -0.217734
v -0.202003 1.978716 -0.357806
v -0.010661 1.978716 -0.409076
v -0.010661 1.761944 -0.733499
v -0.185881 1.626154 -0.826392
v -0.010661 1.712546 -0.787097
v -0.342075 0.130957 -0.217734
v -0.010661 0.054836 -0.026392
v -0.202003 0.130957 -0.357806
v -0.010661 0.130957 -0.409076
v -0.364215 0.347730 -0.638765
v -0.010661 0.347730 -0.733499
v -0.146279 0.666000 -0.917199
v -0.010661 0.594604 -0.898455
v -0.010649 0.640702 -1.220647
v -0.156199 0.831559 -0.968414
v -0.010661 0.918844 -1.000104
v -0.010661 1.048979 -1.018516
v -0.717079 0.460999 -0.404097
v -0.705905 0.613134 -0.546891
v -0.951995 0.482960 -0.528007
v -0.163086 1.291835 -0.947951
v -0.010661 1.228534 -0.991215
v -0.010661 1.452053 -1.076338
v -0.082454 1.486480 -1.073318
v -0.010661 1.720650 -1.233324
v -0.202564 1.426985 -0.898852
v -0.115521 1.538174 -1.031278
v -0.091516 1.628839 -0.996663
v -0.010661 1.663389 -0.990046
v -0.563596 1.346805 -0.791162
v -0.585671 1.095693 -0.821757
v -0.826295 1.095519 -0.616398
v -0.719440 1.275096 -0.793712
v -0.730816 1.175768 -0.798817
v -0.803219 1.175768 -0.728473
v -0.786331 1.275096 -0.728723
v -0.851346 1.274189 -0.858216
v 0.601711 1.761944 -0.379946
v 0.320752 1.978716 -0.217734
v 0.180680 1.978716 -0.357806
v 0.342892 1.761944 -0.638765
v -0.010661 1.978716 -0.409076
v 0.451278 1.412159 -0.826496
v 0.789442 1.412159 -0.488332
v 0.738575 1.338930 -0.563833
v 0.855364 1.020234 -0.526392
v 0.737438 1.610261 -0.250652
v 0.866067 1.394088 -0.286303
v -0.010661 1.761944 -0.733499
v 0.164558 1.626154 -0.826391
v -0.010661 1.712546 -0.787097
v 0.983096 1.018978 0.006195
v 0.815977 0.756428 -0.473717
v 0.924516 1.408927 -0.069089
v 0.927533 0.776617 -0.000355
v 0.489339 1.020234 -0.892418
v 0.437303 0.647012 -0.815150
v 0.070194 1.628839 -0.996663
v -0.010661 1.663389 -0.990046
v -0.010661 1.720650 -1.233324
v 0.094198 1.538174 -1.031278
v 0.181241 1.426985 -0.898852
v 0.061131 1.486480 -1.073318
v -0.010661 1.452053 -1.076338
v 0.141763 1.291835 -0.947951
v -0.010661 1.228534 -0.991215
v -0.010661 1.048979 -1.018516
v 0.542273 1.346805 -0.791162
v 0.135366 0.831174 -0.970264
v -0.010661 0.918844 -1.000104
v -0.010649 0.640702 -1.220647
v 0.124956 0.666000 -0.917199
v -0.010661 0.594604 -0.898455
v -0.010661 0.347730 -0.733499
v 0.342892 0.347730 -0.638765
v -0.010661 0.130957 -0.409076
v 0.564348 1.095693 -0.821757
v 0.804972 1.095519 -0.616398
v 0.698117 1.275096 -0.793712
v 0.709493 1.175768 -0.798817
v 0.781896 1.175768 -0.728473
v 0.765008 1.275096 -0.728723
v 0.830023 1.274189 -0.858216
v 0.180680 0.130957 -0.357806
v -0.010661 0.054836 -0.026392
v 0.320752 0.130957 -0.217734
v 0.372022 0.130957 -0.026392
v 0.601711 0.347730 -0.379946
v 0.696445 0.347730 -0.026392
v 0.842665 0.616190 -0.289027
v 0.913218 0.672153 -0.026392
v 0.695756 0.460999 -0.404097
v 0.930672 0.482960 -0.528007
v 0.684582 0.613134 -0.546891
v 0.180680 1.978716 -0.357806
v -0.010661 2.054837 -0.026392
v -0.010661 1.978716 -0.409076
v 0.320752 1.978716 -0.217734
v 0.372022 1.978716 -0.026392
v 0.483271 1.916182 -0.149428
v 0.454378 1.898873 -0.249816
v 0.601711 1.761944 -0.379946
v 0.575938 1.812985 -0.277878
v 0.534664 1.945469 -0.261498
v 0.609771 1.891127 -0.275775
v 0.654628 2.026874 -0.262916
v 0.557836 1.953076 -0.186859
v 0.580197 1.835693 -0.134833
v 0.629814 1.904140 -0.181254
v 0.609771 1.891127 -0.275775
v 0.575938 1.812985 -0.277878
v 0.696445 1.761944 -0.026392
v 0.601711 1.761944 -0.379946
v 0.737438 1.610261 -0.250652
v 0.601711 1.761944 0.327161
v 0.792651 1.617962 -0.026392
v 0.799192 1.443202 0.446308
v 0.342892 1.761944 0.585980
v 0.320752 1.978716 0.164950
v 0.180680 1.978716 0.305021
v -0.010661 1.978716 0.356291
v -0.196865 1.967008 0.299463
v -0.184970 1.892288 0.484469
v -0.106332 1.838443 0.573219
v -0.013738 1.706686 0.720672
v 0.941666 1.639459 -0.169789
v 0.924516 1.408927 -0.069089
v 0.918832 1.032696 0.219808
v 1.014067 1.523169 -0.176918
v 1.121433 1.677232 -0.302810
v 0.983096 1.018978 0.006195
v 0.911851 1.636899 -0.287450
v 0.866067 1.394088 -0.286303
v 0.979802 1.523169 -0.304797
v 1.014067 1.523169 -0.176918
v 0.924516 1.408927 -0.069089
v 1.141860 0.985073 0.103633
v 1.144763 0.864584 0.102866
v 0.927533 0.776617 -0.000355
v 1.346004 0.973051 0.153734
v 1.142152 0.978210 0.224275
v 1.145000 0.859715 0.216377
v 1.144763 0.864584 0.102866
v 0.863207 0.777878 0.234146
v 0.927533 0.776617 -0.000355
v 0.913218 0.672153 -0.026392
v 0.789442 0.672153 0.435547
v 0.601711 0.347730 0.327161
v 0.696445 0.347730 -0.026392
v 0.372022 0.130957 -0.026392
v 0.855364 1.054837 0.473608
v 0.320752 0.130957 0.164949
v -0.010661 0.054836 -0.026392
v 0.180680 0.130957 0.305021
v -0.010661 0.130957 0.356291
v 0.342892 0.347730 0.585980
v -0.010661 0.347730 0.680714
v 0.191171 0.484027 0.765159
v -0.010661 0.565541 0.846468
v 0.483496 0.472943 0.591720
v 0.347021 0.522947 0.737621
v 0.278707 0.649190 0.829391
v 0.154874 0.759587 0.888894
v 0.070411 0.810907 0.914358
v -0.010661 0.821133 0.930868
v 0.391176 0.650016 0.794133
v 0.266978 0.753564 0.864753
v 0.597858 0.492589 0.491720
v 0.701894 0.667944 0.528086
v 0.543287 0.624806 0.659862
v 0.633535 0.791993 0.639480
v 0.420608 0.723660 0.792346
v 0.541760 0.775880 0.742269
v 0.509952 0.878924 0.796008
v 0.663732 0.911217 0.690513
v 0.349263 0.950032 0.891208
v 0.205515 0.839051 0.893716
v 0.534255 1.140231 0.867213
v 0.262044 1.054837 0.922339
v 0.116564 0.909560 0.928035
v -0.010661 1.054837 0.973608
v -0.010661 0.939836 0.950733
v -0.137887 0.909560 0.928035
v 0.753251 1.053584 0.615679
v 0.483370 1.302096 0.788857
v 0.752197 1.356925 0.536614
v 0.484944 1.372679 0.832252
v 0.163289 1.260965 0.889947
v -0.283367 1.054837 0.922339
v -0.226838 0.839051 0.893716
v 0.494015 1.470222 0.805117
v 0.206169 1.321357 0.948444
v 0.196411 1.446241 0.935166
v -0.370586 0.950032 0.891208
v -0.288301 0.753564 0.864753
v 0.081687 1.646206 0.763710
v 0.084506 1.733830 0.753917
v 0.033488 1.750524 0.733546
v 0.079149 1.815059 0.735660
v 0.044361 1.735671 0.791113
v -0.010661 1.580412 0.845900
v -0.010661 1.437520 0.954059
v 0.009762 1.753805 0.756779
v 0.033488 1.750524 0.733546
v -0.013738 1.706686 0.720672
v -0.090458 1.640286 0.782281
v -0.106332 1.838443 0.573219
v -0.217734 1.446241 0.935166
v -0.010661 1.305826 0.976005
v -0.264192 1.756141 0.630197
v -0.227492 1.321357 0.948444
v -0.010661 1.242636 0.936252
v -0.184612 1.260965 0.889947
v -0.504692 1.302096 0.788857
v -0.591170 1.375434 0.779458
v -0.601347 1.471386 0.736850
v -0.820515 1.443202 0.446308
v -0.623034 1.761944 0.327161
v -0.555578 1.140231 0.867213
v -0.773520 1.356925 0.536614
v -0.774574 1.053584 0.615679
v -0.531274 0.878924 0.796008
v -0.876687 1.054837 0.473608
v -0.940154 1.032696 0.219808
v -0.685055 0.911217 0.690513
v -0.810765 0.672153 0.435547
v -0.884530 0.777878 0.234146
v -0.664759 0.786103 0.650134
v -0.444914 0.721403 0.798057
v -0.563083 0.775880 0.742269
v -0.412499 0.650016 0.794133
v -0.300030 0.649190 0.829391
v -0.564610 0.624806 0.659862
v -0.723217 0.667944 0.528086
v -0.504819 0.472943 0.591720
v -0.368344 0.522947 0.737621
v -0.364215 0.347730 0.585980
v -0.623034 0.347730 0.327161
v -0.619181 0.492589 0.491720
v -0.212494 0.484027 0.765159
v -0.010661 0.565541 0.846468
v -0.176197 0.759587 0.888894
v -0.091734 0.810907 0.914358
v -0.010661 0.821133 0.930868
v -0.010661 0.347730 0.680714
v -0.010661 0.130957 0.356291
v -0.202003 0.130957 0.305021
v -0.010661 0.054836 -0.026392
v -0.342075 0.130957 0.164949
v -0.393345 0.130957 -0.026392
v -0.717768 0.347730 -0.026392
v -0.934541 0.672153 -0.026392
v -0.948856 0.776617 -0.000355
v -1.166086 0.864584 0.102866
v -1.166322 0.859715 0.216377
v -1.367326 0.973051 0.153734
v -1.163475 0.978210 0.224275
v -1.163183 0.985073 0.103633
v -1.166086 0.864584 0.102866
v -1.004419 1.018978 0.006195
v -0.948856 0.776617 -0.000355
v -0.945839 1.408927 -0.069089
v -0.813974 1.617962 -0.026392
v -0.962989 1.639459 -0.169789
v -1.035390 1.523169 -0.176918
v -1.142756 1.677232 -0.302810
v -0.758761 1.610261 -0.250652
v -0.933173 1.636899 -0.287450
v -0.717768 1.761944 -0.026392
v -0.623034 1.761944 -0.379946
v -0.887390 1.394088 -0.286303
v -0.597261 1.812985 -0.277878
v -1.001125 1.523169 -0.304797
v -1.035390 1.523169 -0.176918
v -0.945839 1.408927 -0.069089
v -0.601520 1.835693 -0.134833
v -0.393345 1.978716 -0.026392
v -0.651137 1.904140 -0.181254
v -0.631094 1.891127 -0.275775
v -0.675950 2.026874 -0.262916
v -0.579159 1.953076 -0.186859
v -0.504594 1.916182 -0.149428
v -0.555987 1.945469 -0.261498
v -0.631094 1.891127 -0.275775
v -0.597261 1.812985 -0.277878
v -0.475700 1.898873 -0.249816
v -0.623034 1.761944 -0.379946
v -0.342075 1.978716 -0.217734
v -0.010661 2.054837 -0.026392
v -0.202003 1.978716 -0.357806
v -0.010661 1.978716 -0.409076
v -0.342075 1.978716 0.164950
v -0.196865 1.967008 0.299463
v -0.312588 1.830935 0.496560
v -0.184970 1.892288 0.484469
v -0.259351 1.891707 0.587809
v -0.279183 1.904485 0.529844
v -0.226925 1.919041 0.520609
v -0.200068 1.921482 0.556714
v -0.184970 1.892288 0.484469
v -0.276219 2.015293 0.531580
v 0.197020 0.693511 0.724995
v 0.278707 0.649190 0.829391
v 0.154874 0.759587 0.888894
v 0.083818 0.813016 0.773459
v 0.070411 0.810907 0.914358
v -0.010661 0.853444 0.633226
v -0.010661 0.840472 0.794498
v -0.010661 0.821133 0.930868
v -0.091734 0.810907 0.914358
v -0.105141 0.813016 0.773459
v -0.218343 0.693511 0.724995
v -0.176197 0.759587 0.888894
v -0.300030 0.649190 0.829391
v -0.218343 0.693511 0.724995
v -0.300030 0.649190 0.829391
v -0.288301 0.753564 0.864753
v -0.215105 0.788524 0.741060
v -0.010661 0.853444 0.633226
v -0.197381 0.854518 0.791493
v -0.226838 0.839051 0.893716
v -0.100336 0.916607 0.816392
v -0.137887 0.909560 0.928035
v -0.010661 0.937259 0.870086
v -0.010661 0.939836 0.950733
v 0.116564 0.909560 0.928035
v 0.079014 0.916607 0.816392
v 0.205515 0.839051 0.893716
v 0.176058 0.854518 0.791493
v 0.266978 0.753564 0.864753
v 0.193782 0.788524 0.741060
v 0.197020 0.693511 0.724995
v 0.278707 0.649190 0.829391
v 0.451968 0.086294 0.928138
v 0.333981 0.040420 1.170278
v 0.135623 0.068266 0.675752
v 0.312641 0.089564 0.592891
v 0.067447 0.060283 0.253406
v 0.209492 0.073087 0.023090
v 0.481807 0.137774 0.526958
v 0.676793 0.143031 0.811994
v 0.735885 0.047257 1.169236
v 0.628333 0.126688 0.456455
v 0.502999 0.107250 0.059795
v 0.852029 0.153602 0.351746
v 0.853840 0.136432 0.716470
v 1.201241 0.146830 0.737110
v 0.873764 0.097045 1.099433
v 1.124932 -0.008116 1.360276
v 1.027466 0.089624 1.016497
v 0.518122 0.152203 -0.676699
v 0.349479 0.151288 -1.058104
v 0.577447 0.143233 -1.222684
v 0.316180 0.142165 -0.685944
v 0.097416 0.157758 -1.066142
v 0.381503 0.113886 -0.259682
v 0.214016 0.095713 -1.414768
v 0.142852 0.086185 -0.118074
v 0.121755 0.151567 -0.683324
v -0.038469 0.124448 -0.712765
v -0.109638 0.084622 -0.291880
v -0.293659 0.111765 -0.724449
v -0.120380 0.128117 -1.057617
v -0.425094 0.093614 -1.243169
v -0.127474 0.085066 -1.415060
v 0.035135 0.108914 -1.448071
v -0.037048 0.004642 -1.776719
v -0.706434 0.071950 -0.002465
v -0.911408 0.051221 0.268153
v -1.117042 0.024117 0.170133
v -0.633096 0.071175 0.145421
v -0.353418 0.075452 -0.069033
v -0.157788 0.081292 0.046109
v -0.571424 0.090407 0.287532
v -0.808675 0.071820 0.454020
v -1.107396 -0.013456 0.505386
v -0.511817 0.069003 0.409304
v -0.181566 0.068952 0.294468
v -0.419141 0.068024 0.596184
v -0.725150 0.051106 0.603578
v -0.734908 0.022223 0.894307
v -1.043369 0.010238 0.622766
v -1.259742 -0.093783 0.827716
v -0.972982 -0.008558 0.749418
v -0.248280 2.133144 0.528582
v -0.278471 2.278550 0.598811
v -0.542834 2.298152 0.335176
v -0.379648 2.362923 0.583285
v -0.483580 2.150590 0.293930
v -0.601319 2.325530 -0.033069
v -0.284124 2.080556 0.324666
v -0.523046 2.443717 0.448876
v -0.371711 2.460302 0.579571
v -0.500374 2.615408 0.445124
v -0.599068 2.483505 0.267503
v -0.611910 2.386625 0.264484
v -0.645614 2.471685 0.072690
v -0.617589 2.642157 0.085364
v -0.599068 2.512185 -0.118234
v -0.535636 2.174959 -0.033832
v -0.611910 2.415924 -0.129575
v -0.357019 2.114680 -0.134303
v -0.003841 2.086283 0.044035
v 0.058167 2.130365 -0.345269
v -0.523046 2.499654 -0.303497
v -0.500374 2.668903 -0.274395
v -0.371711 2.535388 -0.430302
v -0.384564 2.196944 -0.329512
v -0.431588 2.350229 -0.365268
v -0.098472 2.362814 -0.534533
v -0.088069 2.208145 -0.480168
v -0.379648 2.439627 -0.448376
v -0.202160 2.516941 -0.535993
v -0.193500 2.685436 -0.496739
v -0.003841 2.544248 -0.549502
v 0.240598 2.204285 -0.428255
v -0.003841 2.448680 -0.570148
v 0.270790 2.358477 -0.476208
v 0.194478 2.516941 -0.535993
v 0.185818 2.685436 -0.496739
v 0.364030 2.535385 -0.430302
v 0.387660 2.105935 -0.016683
v -0.003841 2.086283 0.044035
v 0.371967 2.439627 -0.448377
v 0.475899 2.186838 -0.193603
v 0.176112 2.075151 0.397360
v -0.284124 2.080556 0.324666
v -0.248280 2.133144 0.528582
v 0.515365 2.499654 -0.303497
v 0.492693 2.668905 -0.274396
v 0.591387 2.512185 -0.118234
v 0.535153 2.338877 -0.212573
v 0.593638 2.311498 0.155672
v 0.527954 2.162468 0.134160
v 0.604229 2.415924 -0.129575
v 0.637932 2.471685 0.072689
v 0.609908 2.642157 0.085364
v 0.591386 2.483505 0.267503
v 0.376882 2.140486 0.429839
v 0.604229 2.386625 0.264484
v 0.423907 2.286799 0.487871
v 0.090790 2.274214 0.657135
v 0.080387 2.129285 0.580495
v -0.278471 2.278550 0.598811
v 0.515364 2.443717 0.448876
v 0.492692 2.615408 0.445123
v 0.364030 2.460302 0.579571
v 0.371967 2.362923 0.583285
v 0.194478 2.426431 0.681372
v 0.185818 2.598877 0.667467
v -0.003841 2.451440 0.698771
v -0.003841 2.353870 0.705057
v -0.202160 2.426431 0.681372
v -0.379648 2.362923 0.583285
v -0.193500 2.598877 0.667467
v -0.371711 2.460302 0.579571
vt 0.816895 0.710449
vt 0.840332 0.785645
vt 0.777344 0.764160
vt 0.867676 0.735840
vt 0.841309 0.686035
vt 0.874023 0.791504
vt 0.883301 0.680664
vt 0.868164 0.650879
vt 0.893066 0.637695
vt 0.906738 0.670410
vt 0.909180 0.630371
vt 0.941406 0.652832
vt 0.941895 0.693359
vt 0.924316 0.700684
vt 0.902832 0.724609
vt 0.931641 0.734863
vt 0.968262 0.725098
vt 0.959961 0.765137
vt 0.912598 0.771973
vt 0.941406 0.768555
vt 0.915527 0.803223
vt 0.941406 0.803711
vt 0.979492 0.801758
vt 0.963379 0.839355
vt 0.944824 0.838867
vt 0.879395 0.846191
vt 0.839844 0.805176
vt 0.937012 0.873047
vt 0.973633 0.880859
vt 0.948242 0.913574
vt 0.915527 0.851074
vt 0.837402 0.882812
vt 0.783691 0.849121
vt 0.771973 0.918457
vt 0.829102 0.940430
vt 0.864746 0.896973
vt 0.904297 0.897461
vt 0.889160 0.926758
vt 0.861328 0.966797
vt 0.895996 0.969238
vt 0.912109 0.937500
vt 0.913086 0.977051
vt 0.946289 0.955078
vt 0.930176 0.907227
vt 0.738281 0.735840
vt 0.748535 0.656738
vt 0.797363 0.703613
vt 0.702637 0.690918
vt 0.720215 0.637207
vt 0.705566 0.747559
vt 0.676270 0.636719
vt 0.666016 0.686523
vt 0.643555 0.666992
vt 0.647949 0.631836
vt 0.629883 0.628906
vt 0.605469 0.659668
vt 0.616699 0.699219
vt 0.635742 0.701172
vt 0.664551 0.734375
vt 0.638672 0.736328
vt 0.600098 0.736816
vt 0.619141 0.773438
vt 0.638184 0.771484
vt 0.666504 0.766602
vt 0.647461 0.805664
vt 0.610352 0.813965
vt 0.636719 0.846191
vt 0.710938 0.803223
vt 0.740234 0.754883
vt 0.675781 0.813965
vt 0.654785 0.840332
vt 0.672363 0.871094
vt 0.638184 0.888184
vt 0.671875 0.912598
vt 0.694336 0.858398
vt 0.761230 0.832520
vt 0.803223 0.780273
vt 0.734375 0.852051
vt 0.772949 0.895020
vt 0.744629 0.923340
vt 0.711426 0.886230
vt 0.688477 0.902344
vt 0.712402 0.927246
vt 0.732422 0.956543
vt 0.681641 0.952148
vt 0.718262 0.967285
vt 0.972168 0.763672
vt 0.968262 0.725098
vt 0.977539 0.722656
vt 0.959961 0.765137
vt 0.968262 0.725098
vt 0.941895 0.693359
vt 0.953125 0.688965
vt 0.977539 0.722656
vt 0.941406 0.652832
vt 0.949707 0.648438
vt 0.953125 0.688965
vt 0.941895 0.693359
vt 0.941406 0.652832
vt 0.909180 0.630371
vt 0.917480 0.621582
vt 0.949707 0.648438
vt 0.620117 0.622559
vt 0.629883 0.628906
vt 0.605469 0.659668
vt 0.596191 0.657715
vt 0.604492 0.698242
vt 0.616699 0.699219
vt 0.600098 0.736816
vt 0.604492 0.698242
vt 0.616699 0.699219
vt 0.590820 0.737305
vt 0.606934 0.774902
vt 0.619141 0.773438
vt 0.606934 0.774902
vt 0.619141 0.773438
vt 0.610352 0.813965
vt 0.601074 0.816406
vt 0.625000 0.850586
vt 0.636719 0.846191
vt 0.638184 0.888184
vt 0.629883 0.892578
vt 0.625000 0.850586
vt 0.636719 0.846191
vt 0.661621 0.919434
vt 0.629883 0.892578
vt 0.638184 0.888184
vt 0.671875 0.912598
vt 0.681641 0.952148
vt 0.661621 0.919434
vt 0.671875 0.912598
vt 0.674316 0.958496
vt 0.681641 0.952148
vt 0.718262 0.967285
vt 0.711914 0.978027
vt 0.674316 0.958496
vt 0.920898 0.985840
vt 0.946289 0.955078
vt 0.954590 0.959961
vt 0.913086 0.977051
vt 0.946289 0.955078
vt 0.948242 0.913574
vt 0.959473 0.917969
vt 0.954590 0.959961
vt 0.973633 0.880859
vt 0.982910 0.882812
vt 0.959473 0.917969
vt 0.948242 0.913574
vt 0.973633 0.880859
vt 0.963379 0.839355
vt 0.975586 0.840820
vt 0.982910 0.882812
vt 0.979492 0.801758
vt 0.975586 0.840820
vt 0.963379 0.839355
vt 0.988770 0.801758
vt 0.972168 0.763672
vt 0.988770 0.801758
vt 0.979492 0.801758
vt 0.959961 0.765137
vt 0.583496 0.332275
vt 0.573730 0.395996
vt 0.538086 0.397949
vt 0.500488 0.341797
vt 0.500977 0.302734
vt 0.575684 0.293213
vt 0.419922 0.343262
vt 0.421143 0.286377
vt 0.503906 0.401855
vt 0.489014 0.392578
vt 0.531738 0.438232
vt 0.426758 0.406250
vt 0.500488 0.461670
vt 0.526855 0.276123
vt 0.568359 0.276855
vt 0.543945 0.216187
vt 0.489014 0.232544
vt 0.508301 0.163574
vt 0.441895 0.465576
vt 0.491211 0.520508
vt 0.460693 0.522461
vt 0.434326 0.537598
vt 0.393311 0.490723
vt 0.395996 0.451416
vt 0.386230 0.481934
vt 0.479248 0.175537
vt 0.466797 0.116943
vt 0.448242 0.174927
vt 0.421631 0.161011
vt 0.432373 0.232910
vt 0.382080 0.212524
vt 0.370361 0.280518
vt 0.359619 0.257568
vt 0.319092 0.281982
vt 0.365234 0.310791
vt 0.344482 0.329346
vt 0.345947 0.350830
vt 0.495605 0.252930
vt 0.476318 0.280273
vt 0.500000 0.276611
vt 0.373047 0.393066
vt 0.348389 0.381104
vt 0.343018 0.418213
vt 0.352539 0.426514
vt 0.323730 0.460693
vt 0.385254 0.416260
vt 0.360840 0.435059
vt 0.364014 0.450928
vt 0.360596 0.464600
vt 0.440430 0.394531
vt 0.436279 0.353760
vt 0.485596 0.353027
vt 0.456787 0.379150
vt 0.456543 0.364990
vt 0.470947 0.364746
vt 0.470703 0.377686
vt 0.463379 0.372559
vt 0.172485 0.526855
vt 0.141724 0.526367
vt 0.129761 0.468262
vt 0.188232 0.468994
vt 0.199219 0.541016
vt 0.201050 0.409912
vt 0.124084 0.408203
vt 0.138428 0.398193
vt 0.125366 0.348145
vt 0.097900 0.445557
vt 0.089783 0.405762
vt 0.237793 0.492188
vt 0.233643 0.453613
vt 0.244629 0.483398
vt 0.041962 0.341797
vt 0.123413 0.309326
vt 0.054047 0.404785
vt 0.048706 0.302490
vt 0.205444 0.346924
vt 0.202393 0.290283
vt 0.265381 0.451660
vt 0.269531 0.465332
vt 0.305664 0.459961
vt 0.267822 0.435791
vt 0.242676 0.417969
vt 0.275879 0.427002
vt 0.284912 0.418457
vt 0.253906 0.394775
vt 0.278320 0.381836
vt 0.279297 0.351807
vt 0.187012 0.398682
vt 0.258789 0.312500
vt 0.280029 0.330322
vt 0.303467 0.282227
vt 0.252441 0.282471
vt 0.262451 0.259521
vt 0.238281 0.215454
vt 0.189209 0.237427
vt 0.197754 0.164795
vt 0.189575 0.357910
vt 0.140503 0.358887
vt 0.170044 0.383789
vt 0.169800 0.369873
vt 0.155518 0.370117
vt 0.156250 0.383057
vt 0.163330 0.377686
vt 0.171143 0.179932
vt 0.150391 0.123047
vt 0.140137 0.182007
vt 0.111389 0.171509
vt 0.132935 0.239136
vt 0.077393 0.224365
vt 0.096802 0.283691
vt 0.055237 0.285889
vt 0.126831 0.259521
vt 0.123474 0.283203
vt 0.147095 0.286133
vt 0.477295 0.981934
vt 0.430664 0.943359
vt 0.489258 0.953125
vt 0.484619 0.922852
vt 0.469727 0.899414
vt 0.497314 0.900391
vt 0.502930 0.922852
vt 0.527344 0.941406
vt 0.523926 0.929199
vt 0.513672 0.913574
vt 0.526855 0.920898
vt 0.533203 0.906738
vt 0.511719 0.901855
vt 0.507324 0.880371
vt 0.517578 0.892578
vt 0.532227 0.890625
vt 0.529785 0.884277
vt 0.501465 0.853027
vt 0.544922 0.883789
vt 0.543457 0.853516
vt 0.446777 0.831055
vt 0.514648 0.829590
vt 0.456055 0.774902
vt 0.388672 0.829590
vt 0.441162 0.886719
vt 0.410400 0.886719
vt 0.385498 0.903320
vt 0.376953 0.932129
vt 0.353027 0.910156
vt 0.346924 0.886719
vt 0.331543 0.847656
vt 0.549805 0.823730
vt 0.531738 0.798340
vt 0.516113 0.733887
vt 0.553711 0.803711
vt 0.583984 0.812500
vt 0.550781 0.757324
vt 0.562500 0.836914
vt 0.582520 0.870605
vt 0.582031 0.843750
vt 0.602539 0.840820
vt 0.617676 0.864746
vt 0.559082 0.735352
vt 0.576172 0.735352
vt 0.592773 0.764648
vt 0.580566 0.713867
vt 0.550781 0.723633
vt 0.550293 0.710449
vt 0.562500 0.698730
vt 0.515625 0.691895
vt 0.552734 0.685059
vt 0.555176 0.678223
vt 0.484375 0.671875
vt 0.507324 0.622559
vt 0.561035 0.633301
vt 0.567871 0.584473
vt 0.472656 0.723145
vt 0.539062 0.575195
vt 0.575195 0.528809
vt 0.519043 0.555664
vt 0.512695 0.527344
vt 0.465820 0.591309
vt 0.451172 0.543457
vt 0.427002 0.582031
vt 0.417236 0.554688
vt 0.447754 0.606445
vt 0.426758 0.602051
vt 0.398682 0.604004
vt 0.385742 0.566895
vt 0.387207 0.548340
vt 0.395996 0.538086
vt 0.404785 0.614258
vt 0.379150 0.628418
vt 0.472900 0.626953
vt 0.457275 0.656250
vt 0.416016 0.632812
vt 0.433105 0.664062
vt 0.400391 0.632324
vt 0.411133 0.652344
vt 0.407227 0.668945
vt 0.432617 0.686035
vt 0.375244 0.672363
vt 0.358887 0.647949
vt 0.395264 0.710449
vt 0.356689 0.690430
vt 0.337646 0.664062
vt 0.313232 0.691895
vt 0.313232 0.672363
vt 0.288574 0.665527
vt 0.445801 0.713379
vt 0.389648 0.740723
vt 0.444092 0.759766
vt 0.384521 0.753418
vt 0.340820 0.729492
vt 0.269775 0.692871
vt 0.268066 0.650879
vt 0.385742 0.769043
vt 0.343018 0.746094
vt 0.340820 0.769043
vt 0.251709 0.675293
vt 0.248535 0.632324
vt 0.333008 0.823730
vt 0.323242 0.835938
vt 0.324707 0.844727
vt 0.316162 0.846191
vt 0.317383 0.831543
vt 0.313477 0.803223
vt 0.313477 0.767578
vt 0.310059 0.835449
vt 0.308594 0.840820
vt 0.300537 0.835449
vt 0.295654 0.815918
vt 0.274414 0.863770
vt 0.286133 0.769531
vt 0.313477 0.742188
vt 0.256836 0.839355
vt 0.283691 0.747070
vt 0.313477 0.728027
vt 0.286133 0.730469
vt 0.237305 0.743652
vt 0.228027 0.758789
vt 0.224854 0.774902
vt 0.171387 0.780273
vt 0.180786 0.838867
vt 0.231812 0.713379
vt 0.183716 0.764160
vt 0.181519 0.717285
vt 0.219849 0.672363
vt 0.155151 0.727051
vt 0.111511 0.736816
vt 0.194580 0.689453
vt 0.142944 0.674316
vt 0.112244 0.693848
vt 0.194458 0.667480
vt 0.227173 0.636230
vt 0.215942 0.655762
vt 0.223755 0.618164
vt 0.230347 0.608398
vt 0.211426 0.636230
vt 0.170166 0.659180
vt 0.181152 0.610840
vt 0.202393 0.606445
vt 0.163940 0.596680
vt 0.117920 0.622559
vt 0.154663 0.629883
vt 0.203369 0.587891
vt 0.213257 0.560059
vt 0.244141 0.571777
vt 0.242676 0.553223
vt 0.233887 0.542969
vt 0.182861 0.549805
vt 0.127686 0.529297
vt 0.115784 0.556152
vt 0.070068 0.515625
vt 0.091187 0.572266
vt 0.061096 0.575195
vt 0.062378 0.632324
vt 0.073059 0.679199
vt 0.075317 0.686523
vt 0.065918 0.700684
vt 0.078186 0.712402
vt 0.047821 0.715332
vt 0.077148 0.725586
vt 0.068481 0.737305
vt 0.051392 0.736816
vt 0.076233 0.759766
vt 0.033936 0.765137
vt 0.095703 0.801270
vt 0.112549 0.833008
vt 0.077698 0.826172
vt 0.074219 0.805664
vt 0.043671 0.813477
vt 0.082947 0.855469
vt 0.064209 0.838379
vt 0.124817 0.856934
vt 0.081421 0.885254
vt 0.043396 0.871582
vt 0.094971 0.886230
vt 0.044495 0.844727
vt 0.024261 0.841309
vt 0.008049 0.864258
vt 0.117920 0.884277
vt 0.154907 0.906250
vt 0.106384 0.895508
vt 0.092041 0.892090
vt 0.089844 0.908203
vt 0.111938 0.905273
vt 0.126465 0.904785
vt 0.108643 0.916504
vt 0.095337 0.922852
vt 0.097534 0.931641
vt 0.118652 0.926270
vt 0.093994 0.943359
vt 0.136719 0.927734
vt 0.187134 0.958008
vt 0.127197 0.957031
vt 0.134888 0.987305
vt 0.185181 0.896973
vt 0.214722 0.902344
vt 0.233887 0.857422
vt 0.240967 0.881836
vt 0.251465 0.860352
vt 0.244629 0.865723
vt 0.248047 0.874512
vt 0.255127 0.869629
vt 0.257812 0.880859
vt 0.248413 0.870605
vt 0.346436 0.483398
vt 0.377686 0.492188
vt 0.362305 0.512695
vt 0.332031 0.505859
vt 0.327881 0.480225
vt 0.315430 0.533203
vt 0.313965 0.503418
vt 0.312500 0.478271
vt 0.297363 0.481934
vt 0.296143 0.507812
vt 0.266602 0.518066
vt 0.279297 0.487061
vt 0.249268 0.499268
vt 0.252441 0.618652
vt 0.240234 0.602051
vt 0.262695 0.588379
vt 0.273682 0.602051
vt 0.315674 0.586914
vt 0.280518 0.615723
vt 0.269775 0.631836
vt 0.299805 0.623535
vt 0.290283 0.643555
vt 0.315918 0.634277
vt 0.315918 0.648926
vt 0.341553 0.643066
vt 0.331787 0.623535
vt 0.362061 0.631348
vt 0.351074 0.615723
vt 0.379150 0.618652
vt 0.357910 0.602051
vt 0.368652 0.587891
vt 0.391357 0.601562
vt 0.728027 0.198486
vt 0.638184 0.226807
vt 0.658203 0.182983
vt 0.719727 0.164795
vt 0.793945 0.161011
vt 0.809570 0.115784
vt 0.709473 0.133301
vt 0.649414 0.138062
vt 0.592773 0.172119
vt 0.703125 0.105286
vt 0.771973 0.079041
vt 0.692871 0.062744
vt 0.642578 0.103210
vt 0.601074 0.057892
vt 0.587891 0.143799
vt 0.521484 0.141235
vt 0.581055 0.113770
vt 0.777344 0.236816
vt 0.754883 0.281250
vt 0.683105 0.261963
vt 0.690430 0.297119
vt 0.762695 0.325195
vt 0.613770 0.297363
vt 0.821777 0.295654
vt 0.595215 0.343262
vt 0.695312 0.331055
vt 0.704590 0.358887
vt 0.632324 0.382812
vt 0.713379 0.403320
vt 0.767090 0.364014
vt 0.808105 0.412598
vt 0.830566 0.355957
vt 0.831543 0.326416
vt 0.893555 0.330566
vt 0.835938 0.118774
vt 0.870117 0.140625
vt 0.849121 0.197021
vt 0.878418 0.193970
vt 0.873047 0.256104
vt 0.908691 0.274414
vt 0.905762 0.189819
vt 0.908203 0.138794
vt 0.887207 0.087280
vt 0.929688 0.187134
vt 0.943848 0.247437
vt 0.966309 0.183228
vt 0.938477 0.136719
vt 0.980957 0.107361
vt 0.911133 0.086914
vt 0.920898 0.031982
vt 0.936523 0.084534
vt 0.624512 0.461914
vt 0.616699 0.404785
vt 0.650879 0.402344
vt 0.598633 0.422363
vt 0.654297 0.452637
vt 0.648438 0.513672
vt 0.679199 0.427490
vt 0.591309 0.457520
vt 0.578613 0.428467
vt 0.558594 0.468018
vt 0.595703 0.490967
vt 0.613770 0.482910
vt 0.615723 0.518066
vt 0.586914 0.536621
vt 0.630859 0.549316
vt 0.673340 0.495605
vt 0.645020 0.536621
vt 0.705078 0.494629
vt 0.745117 0.451416
vt 0.774414 0.514648
vt 0.660156 0.568359
vt 0.639160 0.595215
vt 0.685547 0.591797
vt 0.706055 0.527344
vt 0.689453 0.553223
vt 0.743164 0.573242
vt 0.750000 0.541016
vt 0.694336 0.574707
vt 0.719727 0.598633
vt 0.709473 0.631348
vt 0.751953 0.612305
vt 0.795410 0.544922
vt 0.754395 0.592773
vt 0.798828 0.576660
vt 0.785645 0.607910
vt 0.787109 0.642578
vt 0.820801 0.610840
vt 0.844238 0.503906
vt 0.812012 0.452393
vt 0.816895 0.591797
vt 0.840332 0.535156
vt 0.874512 0.445801
vt 0.839844 0.386963
vt 0.877930 0.378906
vt 0.852051 0.596191
vt 0.864746 0.627930
vt 0.885742 0.586426
vt 0.854004 0.562988
vt 0.899414 0.529297
vt 0.876465 0.509277
vt 0.875488 0.570312
vt 0.909668 0.560547
vt 0.933105 0.584961
vt 0.937012 0.538086
vt 0.896973 0.469482
vt 0.921387 0.526855
vt 0.925781 0.478760
vt 0.929199 0.421631
vt 0.897949 0.423828
vt 0.912109 0.365234
vt 0.947754 0.504395
vt 0.979004 0.518066
vt 0.963379 0.472900
vt 0.944824 0.468506
vt 0.959961 0.437744
vt 0.994141 0.439209
vt 0.962891 0.404053
vt 0.943359 0.405762
vt 0.948730 0.373047
vt 0.925781 0.345947
vt 0.982422 0.365479
vt 0.946289 0.341309
vn 0.0365 -0.9526 -0.3021
vn 0.2310 -0.9669 -0.1087
vn 0.0000 -0.9973 -0.0740
vn 0.5099 -0.6531 -0.5599
vn 0.1191 -0.5910 -0.7978
vn 0.7518 -0.6379 -0.1668
vn 0.3822 -0.2897 -0.8775
vn -0.1006 -0.2829 -0.9539
vn -0.0246 0.0152 -0.9996
vn 0.3330 0.0098 -0.9429
vn 0.0000 0.1194 -0.9928
vn 0.3075 0.1174 -0.9443
vn 0.5842 0.1129 -0.8037
vn 0.5665 -0.0048 -0.8240
vn 0.6447 -0.3587 -0.6751
vn 0.8239 -0.0271 -0.5661
vn 0.8056 0.1050 -0.5831
vn 0.9469 0.0957 -0.3069
vn 0.8492 -0.3339 -0.4091
vn 0.9436 -0.0341 -0.3292
vn 0.9241 -0.3757 0.0701
vn 0.9976 -0.0653 0.0239
vn 0.9964 0.0849 0.0021
vn 0.9481 0.0742 0.3092
vn 0.9559 -0.0864 0.2808
vn 0.6425 -0.7152 0.2751
vn 0.7896 -0.1140 0.6030
vn 0.8064 0.0647 0.5879
vn 0.5861 0.0568 0.8082
vn 0.8090 -0.4500 0.3782
vn 0.1064 -0.9850 0.1361
vn -0.1657 -0.9818 0.0931
vn -0.1128 -0.7437 0.6589
vn 0.3456 -0.6970 0.6283
vn 0.6214 -0.4312 0.6542
vn 0.1900 -0.4502 0.8725
vn -0.1417 -0.4918 0.8591
vn 0.0274 -0.1415 0.9896
vn 0.2837 -0.1343 0.9495
vn -0.0000 0.0502 0.9987
vn 0.3080 0.0522 0.9499
vn 0.6034 -0.1205 0.7882
vn -0.2082 -0.9617 -0.1780
vn -0.3274 -0.6433 -0.6921
vn -0.6782 -0.6211 -0.3927
vn -0.1005 -0.2829 -0.9539
vn -0.4143 -0.3442 -0.8426
vn -0.2826 0.0042 -0.9592
vn -0.3075 0.1174 -0.9443
vn -0.5842 0.1129 -0.8037
vn -0.6107 -0.0095 -0.7918
vn -0.6907 -0.3114 -0.6527
vn -0.7949 -0.0136 -0.6066
vn -0.8056 0.1050 -0.5831
vn -0.9469 0.0957 -0.3069
vn -0.9583 -0.0415 -0.2827
vn -0.9110 -0.3492 -0.2194
vn -0.9975 -0.0633 -0.0300
vn -0.9964 0.0849 0.0021
vn -0.9481 0.0742 0.3092
vn -0.7122 -0.6993 0.0611
vn -0.2083 -0.9617 -0.1780
vn -0.8978 -0.4266 0.1092
vn -0.9385 -0.0942 0.3323
vn -0.8198 -0.1026 0.5633
vn -0.8064 0.0647 0.5879
vn -0.5861 0.0569 0.8082
vn -0.8040 -0.4108 0.4299
vn 0.0000 -0.9973 -0.0739
vn -0.5382 -0.6866 0.4887
vn -0.4608 -0.4405 0.7705
vn -0.5634 -0.1252 0.8166
vn -0.3336 -0.1360 0.9329
vn -0.3080 0.0521 0.9500
vn 0.1039 0.7530 0.6498
vn 0.1040 0.7530 0.6498
vn -0.5311 0.8178 -0.2218
vn 0.4322 0.7659 0.4761
vn -0.5953 0.7906 0.1432
vn -0.5953 0.7906 0.1431
vn 0.5953 0.7906 0.1431
vn 0.5953 0.7906 0.1432
vn 0.0969 0.9248 0.3679
vn -0.4322 0.7659 0.4761
vn 0.2538 0.9332 0.2543
vn 0.5311 0.8178 -0.2218
vn -0.1039 0.7530 0.6498
vn -0.1040 0.7530 0.6498
vn 0.2640 0.8369 -0.4794
vn 0.3137 0.9469 0.0704
vn 0.2640 0.7568 0.5979
vn -0.1039 0.8408 -0.5313
vn -0.1040 0.8408 -0.5313
vn 0.5311 0.7760 0.3403
vn -0.4322 0.8279 -0.3576
vn 0.5953 0.8031 -0.0247
vn 0.5953 0.8031 -0.0246
vn -0.5953 0.8031 -0.0246
vn -0.5953 0.8031 -0.0247
vn 0.4322 0.8279 -0.3576
vn 0.4322 0.8279 -0.3575
vn -0.5311 0.7760 0.3403
vn 0.1039 0.8408 -0.5313
vn 0.1040 0.8408 -0.5313
vn -0.2640 0.7568 0.5979
vn -0.2640 0.8369 -0.4794
vn -0.2640 0.8369 -0.4795
vn -0.9868 0.0985 -0.1288
vn -0.9714 0.2226 0.0823
vn -0.9314 0.1352 -0.3381
vn -0.9191 -0.0808 -0.3858
vn -0.8664 -0.1652 -0.4713
vn -0.9300 -0.3148 -0.1898
vn -0.4790 -0.1032 -0.8717
vn -0.4686 -0.4230 -0.7755
vn -0.7346 0.4588 -0.4998
vn -0.7741 0.4028 -0.4883
vn -0.6888 0.6423 -0.3361
vn -0.4839 0.4114 -0.7724
vn -0.6082 0.6270 -0.4867
vn -0.8872 -0.4478 -0.1111
vn -0.8874 -0.4599 0.0325
vn -0.7311 -0.6812 0.0369
vn -0.6176 -0.6942 -0.3697
vn -0.4877 -0.8730 -0.0000
vn -0.4355 0.6698 -0.6015
vn -0.3412 0.8939 -0.2908
vn -0.2439 0.8730 -0.4224
vn -0.0000 0.8730 -0.4877
vn 0.0000 0.7972 -0.6037
vn -0.3984 0.5792 -0.7112
vn -0.0000 0.8157 -0.5785
vn -0.4224 -0.8730 -0.2439
vn -0.0000 -1.0000 0.0000
vn -0.2439 -0.8730 -0.4223
vn -0.0000 -0.8730 -0.4877
vn -0.3591 -0.6756 -0.6439
vn 0.0000 -0.6731 -0.7396
vn -0.3149 -0.4898 -0.8130
vn -0.0000 -0.6210 -0.7838
vn -0.0014 -0.2760 -0.9612
vn -0.3714 -0.1139 -0.9215
vn -0.0017 0.0707 -0.9975
vn -0.0003 0.0444 -0.9990
vn -0.6763 -0.6367 -0.3705
vn -0.5985 -0.3962 -0.6963
vn -0.7957 -0.4833 -0.3652
vn -0.3174 0.0980 -0.9432
vn 0.0000 0.0315 -0.9995
vn 0.0000 -0.4158 -0.9094
vn -0.5852 -0.2609 -0.7678
vn 0.0000 0.6013 -0.7990
vn -0.4456 0.2904 -0.8468
vn -0.8746 0.1380 -0.4647
vn -0.7142 0.6470 -0.2670
vn 0.0000 0.9941 -0.1086
vn -0.5290 0.3578 -0.7695
vn -0.5427 -0.0626 -0.8376
vn -0.8234 -0.0349 -0.5664
vn -0.1993 0.6188 -0.7599
vn -0.2898 -0.3708 -0.8823
vn -0.9072 -0.3023 -0.2925
vn -0.7267 0.6774 -0.1141
vn -0.6833 0.1607 -0.7122
vn 0.2438 0.8730 -0.4224
vn 0.3412 0.8939 -0.2908
vn 0.6082 0.6270 -0.4867
vn 0.4355 0.6698 -0.6015
vn 0.4839 0.4114 -0.7724
vn 0.7346 0.4588 -0.4998
vn 0.7741 0.4028 -0.4883
vn 0.9191 -0.0808 -0.3858
vn 0.6888 0.6423 -0.3361
vn 0.9314 0.1352 -0.3381
vn 0.3984 0.5792 -0.7112
vn 0.9868 0.0985 -0.1288
vn 0.8664 -0.1652 -0.4713
vn 0.9714 0.2226 0.0823
vn 0.9300 -0.3148 -0.1898
vn 0.4796 -0.1033 -0.8714
vn 0.4692 -0.4236 -0.7749
vn 0.7142 0.6470 -0.2670
vn 0.8746 0.1380 -0.4647
vn 0.4456 0.2904 -0.8468
vn 0.5852 -0.2609 -0.7678
vn -0.0000 -0.4158 -0.9095
vn 0.3173 0.0980 -0.9432
vn -0.0002 0.0444 -0.9990
vn 0.5290 0.3578 -0.7695
vn 0.3723 -0.1131 -0.9212
vn -0.0014 -0.2761 -0.9611
vn 0.3163 -0.4893 -0.8127
vn 0.3591 -0.6756 -0.6439
vn 0.5427 -0.0626 -0.8376
vn 0.8234 -0.0349 -0.5664
vn 0.1993 0.6188 -0.7598
vn 0.2898 -0.3708 -0.8823
vn 0.9072 -0.3023 -0.2925
vn 0.7267 0.6774 -0.1141
vn 0.6833 0.1607 -0.7122
vn 0.2439 -0.8730 -0.4224
vn 0.4223 -0.8730 -0.2438
vn 0.4877 -0.8730 -0.0000
vn 0.6176 -0.6942 -0.3697
vn 0.7311 -0.6812 0.0369
vn 0.8872 -0.4478 -0.1111
vn 0.8874 -0.4599 0.0325
vn 0.6763 -0.6367 -0.3705
vn 0.7957 -0.4833 -0.3652
vn 0.5985 -0.3962 -0.6963
vn -0.0025 1.0000 0.0044
vn 0.2439 0.8730 -0.4223
vn 0.3411 0.8939 -0.2908
vn 0.4475 0.8911 0.0751
vn 0.4368 0.8990 0.0321
vn 0.3060 0.8792 -0.3651
vn 0.6579 0.6655 -0.3525
vn -0.3969 0.5646 -0.7237
vn 0.5787 -0.2684 -0.7701
vn 0.6410 0.6966 -0.3222
vn -0.1029 0.7775 0.6205
vn 0.6755 0.7362 0.0425
vn 0.8552 -0.0510 0.5158
vn 0.5787 -0.2683 -0.7701
vn 0.6957 0.7174 0.0355
vn 0.6268 0.6967 0.3490
vn 0.7915 0.5866 0.1719
vn 0.8126 0.4511 0.3691
vn 0.3760 0.7367 0.5621
vn 0.4223 0.8730 0.2438
vn 0.2273 0.8671 0.4432
vn 0.0498 0.8800 0.4723
vn -0.2558 0.9019 0.3480
vn -0.1190 0.9300 0.3477
vn 0.0421 0.7636 0.6443
vn 0.0367 0.8101 0.5852
vn 0.3054 0.8059 0.5072
vn 0.9178 0.1595 0.3635
vn 0.8771 -0.2400 0.4161
vn 0.8456 0.4666 -0.2593
vn 0.9868 0.0985 -0.1289
vn -0.2325 0.6626 -0.7119
vn 0.9314 0.1352 -0.3380
vn 0.3387 -0.4107 -0.8465
vn 0.8770 -0.2400 0.4162
vn 0.4274 0.6764 -0.5998
vn 0.5027 -0.7139 -0.4875
vn 0.9846 0.1728 -0.0274
vn 0.1634 0.5272 0.8339
vn 0.2803 -0.6265 0.7273
vn 0.8630 -0.3329 0.3801
vn 0.8402 -0.4248 0.3369
vn 0.6565 -0.6965 0.2897
vn 0.7311 -0.6812 0.0368
vn 0.9092 -0.0481 0.4136
vn 0.4224 -0.8730 0.2439
vn 0.2439 -0.8730 0.4223
vn 0.0000 -0.8730 0.4877
vn 0.3226 -0.7782 0.5388
vn 0.0000 -0.7652 0.6437
vn 0.1908 -0.5801 0.7919
vn -0.0000 -0.4723 0.8814
vn 0.5366 -0.5797 0.6132
vn 0.4088 -0.5476 0.7301
vn 0.2048 -0.4135 0.8872
vn 0.1344 -0.3197 0.9379
vn 0.1389 -0.3172 0.9381
vn -0.0000 -0.3136 0.9496
vn 0.4451 -0.4095 0.7964
vn 0.3450 -0.2495 0.9048
vn 0.6145 -0.5619 0.5537
vn 0.6513 -0.4492 0.6116
vn 0.6086 -0.4322 0.6655
vn 0.6569 -0.3257 0.6800
vn 0.4551 -0.2827 0.8444
vn 0.5848 -0.3044 0.7519
vn 0.5115 -0.2280 0.8285
vn 0.7164 -0.2127 0.6645
vn 0.3020 -0.2144 0.9289
vn 0.2594 -0.2206 0.9402
vn 0.5183 0.1659 0.8389
vn 0.2131 0.1116 0.9706
vn 0.1739 -0.1650 0.9708
vn 0.0000 0.0807 0.9967
vn -0.0000 -0.1604 0.9871
vn -0.1739 -0.1650 0.9708
vn 0.7676 0.0193 0.6406
vn 0.5607 0.1635 0.8117
vn 0.7565 0.1594 0.6343
vn 0.5537 -0.0934 0.8275
vn 0.2326 0.0296 0.9721
vn -0.2131 0.1116 0.9706
vn -0.2594 -0.2206 0.9402
vn 0.4806 0.5810 0.6568
vn 0.2999 -0.2057 0.9315
vn 0.2194 0.5338 0.8166
vn -0.3020 -0.2144 0.9289
vn -0.3403 -0.2481 0.9070
vn 0.2378 0.6552 0.7170
vn 0.9997 -0.0216 0.0142
vn 0.0020 0.1406 -0.9901
vn 0.5459 0.8367 0.0444
vn 0.0839 0.3572 0.9303
vn 0.0023 0.6192 0.7853
vn 0.0078 0.4257 0.9048
vn -0.5647 0.6296 0.5336
vn -0.2380 0.6532 0.7188
vn -0.2705 0.5143 0.8138
vn -0.0000 -0.1771 0.9842
vn -0.3815 0.6688 0.6381
vn -0.3331 -0.1318 0.9336
vn -0.0000 0.0073 1.0000
vn -0.2350 0.0325 0.9714
vn -0.5389 0.1050 0.8358
vn -0.5975 -0.0178 0.8017
vn -0.5016 0.6053 0.6181
vn -0.8005 0.4738 0.3669
vn -0.6194 0.7049 0.3457
vn -0.5183 0.1659 0.8389
vn -0.7734 0.1144 0.6235
vn -0.7676 0.0193 0.6406
vn -0.5072 -0.2151 0.8345
vn -0.9092 -0.0481 0.4136
vn -0.9178 0.1595 0.3635
vn -0.7169 -0.2054 0.6662
vn -0.8422 -0.4226 0.3347
vn -0.8630 -0.3329 0.3801
vn -0.6617 -0.3288 0.6738
vn -0.4583 -0.2774 0.8444
vn -0.5677 -0.3033 0.7654
vn -0.4421 -0.4212 0.7919
vn -0.1999 -0.4184 0.8860
vn -0.5976 -0.4522 0.6621
vn -0.6655 -0.4464 0.5982
vn -0.5366 -0.5797 0.6132
vn -0.4088 -0.5476 0.7301
vn -0.3226 -0.7782 0.5388
vn -0.6564 -0.6965 0.2897
vn -0.6145 -0.5619 0.5537
vn -0.1908 -0.5800 0.7919
vn -0.1344 -0.3197 0.9379
vn -0.1389 -0.3172 0.9381
vn -0.2439 -0.8730 0.4224
vn -0.4223 -0.8730 0.2438
vn -0.7311 -0.6812 0.0368
vn -0.5027 -0.7139 -0.4875
vn -0.2803 -0.6265 0.7273
vn -0.9846 0.1728 -0.0274
vn -0.1634 0.5272 0.8339
vn -0.4274 0.6764 -0.5998
vn -0.9868 0.0985 -0.1289
vn -0.7915 0.5866 0.1719
vn -0.3054 0.8059 0.5072
vn -0.8771 -0.2400 0.4161
vn -0.8456 0.4666 -0.2593
vn 0.2325 0.6626 -0.7119
vn -0.6957 0.7174 0.0355
vn -0.9314 0.1352 -0.3380
vn -0.6579 0.6655 -0.3525
vn -0.3387 -0.4107 -0.8465
vn -0.8770 -0.2400 0.4162
vn -0.6755 0.7362 0.0425
vn -0.4475 0.8911 0.0751
vn -0.8552 -0.0510 0.5158
vn -0.5787 -0.2683 -0.7701
vn -0.6410 0.6966 -0.3222
vn 0.1029 0.7775 0.6205
vn -0.4368 0.8990 0.0321
vn 0.3969 0.5646 -0.7237
vn -0.5787 -0.2684 -0.7701
vn -0.3060 0.8792 -0.3651
vn -0.3411 0.8939 -0.2908
vn -0.2439 0.8730 -0.4223
vn -0.4112 0.8803 0.2367
vn -0.4497 0.7830 0.4298
vn -0.2979 0.3418 0.8913
vn -0.9340 0.3402 -0.1092
vn 0.1644 0.6574 -0.7354
vn 0.4189 0.5778 0.7004
vn -0.2922 0.8553 0.4278
vn 0.6012 0.7949 -0.0814
vn 0.0261 0.9177 0.3964
vn 0.2254 0.8916 0.3927
vn 0.5613 0.8230 -0.0876
vn 0.3636 0.9289 0.0707
vn 0.0000 -0.1588 0.9873
vn -0.0000 0.9971 0.0761
vn 0.0000 0.9901 0.1404
vn -0.3636 0.9289 0.0707
vn -0.5613 0.8230 -0.0876
vn -0.2254 0.8916 0.3927
vn -0.6012 0.7949 -0.0814
vn -0.0261 0.9177 0.3964
vn 0.8456 -0.3443 0.4080
vn -0.2255 0.8916 0.3926
vn 0.7122 -0.3671 0.5983
vn 0.6225 -0.7154 0.3172
vn 0.6891 -0.7055 0.1654
vn 0.3154 -0.9159 0.2481
vn 0.4193 -0.9059 0.0599
vn 0.0000 -0.9923 0.1239
vn 0.0000 -0.9998 0.0211
vn -0.4193 -0.9059 0.0599
vn -0.3154 -0.9159 0.2481
vn -0.6891 -0.7055 0.1654
vn -0.6225 -0.7154 0.3172
vn -0.8456 -0.3443 0.4080
vn -0.7122 -0.3671 0.5983
vn 0.2255 0.8916 0.3926
vn -0.1201 0.9917 0.0463
vn -0.1271 0.9879 0.0888
vn -0.1529 0.9788 0.1363
vn -0.1626 0.9853 0.0520
vn -0.1114 0.9938 -0.0053
vn -0.1215 0.9925 -0.0147
vn -0.1233 0.9923 0.0067
vn -0.0663 0.9908 0.1180
vn -0.1296 0.9423 0.3087
vn -0.0554 0.9983 -0.0184
vn -0.1187 0.9929 -0.0111
vn -0.0815 0.9964 0.0249
vn -0.0044 0.9992 0.0408
vn -0.0582 0.9972 0.0472
vn -0.0086 0.9708 0.2397
vn 0.0564 0.9436 0.3261
vn 0.1168 0.9838 0.1360
vn -0.0047 1.0000 -0.0003
vn 0.0207 0.9994 -0.0272
vn -0.0309 0.9989 0.0341
vn -0.0065 0.9989 0.0456
vn -0.0410 0.9976 -0.0556
vn -0.0625 0.9952 0.0756
vn 0.0692 0.9816 -0.1780
vn -0.0579 0.9946 0.0862
vn -0.0509 0.9966 0.0648
vn -0.1007 0.9934 0.0546
vn -0.0587 0.9947 0.0842
vn -0.0753 0.9965 0.0350
vn -0.1145 0.9933 -0.0165
vn -0.0855 0.9963 0.0044
vn -0.1593 0.9771 -0.1409
vn -0.0388 0.9816 -0.1870
vn -0.0419 0.9550 -0.2938
vn -0.0966 0.9953 0.0031
vn -0.1397 0.9901 -0.0146
vn -0.0606 0.9982 0.0008
vn -0.0656 0.9973 -0.0322
vn -0.0169 0.9999 -0.0021
vn 0.0002 1.0000 0.0095
vn -0.0231 0.9997 0.0110
vn -0.1241 0.9902 0.0636
vn -0.2971 0.9547 0.0144
vn 0.0075 0.9971 0.0758
vn 0.0102 0.9995 0.0289
vn -0.0290 0.9981 0.0552
vn -0.0521 0.9918 0.1166
vn -0.0533 0.9960 0.0716
vn -0.2317 0.9658 0.1164
vn -0.2971 0.9407 0.1638
vn -0.1423 0.9653 0.2188
vn 0.8136 0.4366 -0.3838
vn 0.4142 0.4662 -0.7817
vn 0.2797 0.7615 -0.5847
vn 0.6475 0.2654 -0.7144
vn 0.6396 0.7348 -0.2259
vn 0.9023 0.3953 0.1722
vn 0.1509 0.9855 -0.0781
vn 0.7862 0.1372 -0.6025
vn 0.5810 -0.0917 -0.8087
vn 0.7993 -0.1107 -0.5906
vn 0.9401 -0.1283 -0.3158
vn 0.9541 0.2268 -0.1954
vn 0.9952 0.0943 -0.0252
vn 0.9880 -0.1538 -0.0114
vn 0.9401 -0.1736 0.2934
vn 0.6947 0.7090 0.1213
vn 0.8963 0.1823 0.4042
vn 0.1902 0.9671 0.1691
vn 0.0000 0.9972 0.0741
vn -0.0334 0.9586 0.2827
vn 0.8241 0.0505 0.5643
vn 0.7993 -0.1968 0.5677
vn 0.5810 -0.2102 0.7863
vn 0.4637 0.6753 0.5735
vn 0.6463 0.3580 0.6739
vn 0.1434 0.3390 0.9298
vn 0.1496 0.6635 0.7331
vn 0.4962 0.1487 0.8554
vn 0.3381 0.0225 0.9408
vn 0.3053 -0.2234 0.9257
vn -0.0000 -0.2242 0.9745
vn -0.3530 0.6694 0.6537
vn -0.0935 0.1390 0.9859
vn -0.4142 0.3455 0.8421
vn -0.2770 0.0210 0.9607
vn -0.3053 -0.2234 0.9257
vn -0.5810 -0.2103 0.7863
vn -0.2108 0.9718 0.1057
vn -0.6475 0.1569 0.7458
vn -0.6023 0.6879 0.4051
vn -0.0969 0.9884 -0.1172
vn 0.1510 0.9855 -0.0781
vn -0.7863 0.0466 0.6161
vn -0.7993 -0.1968 0.5677
vn -0.9401 -0.1736 0.2934
vn -0.8136 0.3751 0.4442
vn -0.9023 0.4164 -0.1118
vn -0.6819 0.7251 -0.0961
vn -0.9541 0.1955 0.2268
vn -0.9952 0.0895 0.0389
vn -0.9880 -0.1538 -0.0114
vn -0.9401 -0.1283 -0.3158
vn -0.5218 0.7484 -0.4093
vn -0.8963 0.2400 -0.3728
vn -0.6463 0.4537 -0.6136
vn -0.1434 0.4727 -0.8694
vn -0.0684 0.7655 -0.6397
vn -0.8241 0.1334 -0.5506
vn -0.7993 -0.1107 -0.5906
vn -0.5810 -0.0917 -0.8087
vn -0.4962 0.2736 -0.8240
vn -0.3381 0.1614 -0.9272
vn -0.3053 -0.0841 -0.9485
vn -0.0000 -0.0777 -0.9970
vn 0.0935 0.2833 -0.9545
vn 0.2770 0.1628 -0.9470
vn 0.3053 -0.0841 -0.9485
usemtl HomingThistle
s 1
f 3/1/1 2/2/2 1/3/3
f 3/1/1 4/4/4 2/2/2
f 5/5/5 4/4/4 3/1/1
f 4/4/4 6/6/6 2/2/2
f 4/4/4 5/5/5 7/7/7
f 8/8/8 7/7/7 5/5/5
f 7/7/7 8/8/8 9/9/9
f 9/9/9 10/10/10 7/7/7
f 10/10/10 9/9/9 11/11/11
f 10/10/10 11/11/11 12/12/12
f 10/10/10 12/12/12 13/13/13
f 7/7/7 10/10/10 14/14/14
f 13/13/13 14/14/14 10/10/10
f 7/7/7 15/15/15 4/4/4
f 14/14/14 15/15/15 7/7/7
f 14/14/14 13/13/13 16/16/16
f 14/14/14 16/16/16 15/15/15
f 16/16/16 13/13/13 17/17/17
f 16/16/16 17/17/17 18/18/18
f 4/4/4 15/15/15 19/19/19
f 15/15/15 16/16/16 19/19/19
f 19/19/19 6/6/6 4/4/4
f 18/18/18 20/20/20 16/16/16
f 19/19/19 16/16/16 20/20/20
f 19/19/19 21/21/21 6/6/6
f 19/19/19 20/20/20 21/21/21
f 20/20/20 18/18/18 22/22/22
f 21/21/21 20/20/20 22/22/22
f 23/23/23 22/22/22 18/18/18
f 22/22/22 23/23/23 24/24/24
f 24/24/24 25/25/25 22/22/22
f 21/21/21 22/22/22 25/25/25
f 6/6/6 21/21/21 26/26/26
f 6/6/6 26/26/26 27/27/2
f 25/25/25 24/24/24 28/28/27
f 29/29/28 28/28/27 24/24/24
f 28/28/27 29/29/28 30/30/29
f 25/25/25 31/31/30 21/21/21
f 26/26/26 21/21/21 31/31/30
f 25/25/25 28/28/27 31/31/30
f 27/27/2 26/26/26 32/32/31
f 27/27/2 32/32/31 33/33/3
f 32/32/31 34/34/32 33/33/3
f 32/32/31 35/35/33 34/34/32
f 26/26/26 36/36/34 32/32/31
f 26/26/26 31/31/30 36/36/34
f 36/36/34 35/35/33 32/32/31
f 31/31/30 28/28/27 37/37/35
f 36/36/34 31/31/30 37/37/35
f 36/36/34 38/38/36 35/35/33
f 37/37/35 38/38/36 36/36/34
f 39/39/37 35/35/33 38/38/36
f 40/40/38 39/39/37 38/38/36
f 38/38/36 41/41/39 40/40/38
f 41/41/39 38/38/36 37/37/35
f 42/42/40 40/40/38 41/41/39
f 41/41/39 43/43/41 42/42/40
f 43/43/41 41/41/39 30/30/29
f 37/37/35 28/28/27 44/44/42
f 30/30/29 44/44/42 28/28/27
f 37/37/35 44/44/42 41/41/39
f 41/41/39 44/44/42 30/30/29
f 47/45/43 46/46/1 45/47/3
f 47/45/43 48/48/44 46/46/1
f 48/48/44 49/49/5 46/46/1
f 50/50/45 48/48/44 47/45/43
f 51/51/46 49/49/5 48/48/44
f 48/48/44 52/52/47 51/51/46
f 52/52/47 48/48/44 50/50/45
f 53/53/48 51/51/46 52/52/47
f 53/53/48 54/54/9 51/51/46
f 55/55/11 54/54/9 53/53/48
f 53/53/48 56/56/49 55/55/11
f 53/53/48 57/57/50 56/56/49
f 58/58/51 53/53/48 52/52/47
f 58/58/51 57/57/50 53/53/48
f 58/58/51 52/52/47 59/59/52
f 50/50/45 59/59/52 52/52/47
f 57/57/50 58/58/51 60/60/53
f 59/59/52 60/60/53 58/58/51
f 60/60/53 61/61/54 57/57/50
f 62/62/55 61/61/54 60/60/53
f 63/63/56 60/60/53 59/59/52
f 60/60/53 63/63/56 62/62/55
f 64/64/57 59/59/52 50/50/45
f 59/59/52 64/64/57 63/63/56
f 62/62/55 63/63/56 65/65/58
f 65/65/58 63/63/56 64/64/57
f 65/65/58 66/66/59 62/62/55
f 67/67/60 66/66/59 65/65/58
f 64/64/57 50/50/45 68/68/61
f 68/68/61 50/50/45 69/69/62
f 64/64/57 70/70/63 65/65/58
f 68/68/61 70/70/63 64/64/57
f 65/65/58 71/71/64 67/67/60
f 71/71/64 65/65/58 70/70/63
f 67/67/60 71/71/64 72/72/65
f 72/72/65 73/73/66 67/67/60
f 73/73/66 72/72/65 74/74/67
f 71/71/64 70/70/63 75/75/68
f 75/75/68 70/70/63 68/68/61
f 75/75/68 72/72/65 71/71/64
f 76/76/32 68/68/61 69/69/62
f 76/76/32 69/69/62 77/77/69
f 78/78/70 68/68/61 76/76/32
f 68/68/61 78/78/70 75/75/68
f 79/79/33 78/78/70 76/76/32
f 78/78/70 79/79/33 80/80/37
f 81/81/71 75/75/68 78/78/70
f 72/72/65 75/75/68 81/81/71
f 81/81/71 78/78/70 80/80/37
f 72/72/65 82/82/72 74/74/67
f 81/81/71 82/82/72 72/72/65
f 80/80/37 83/83/73 81/81/71
f 82/82/72 81/81/71 83/83/73
f 74/74/67 82/82/72 83/83/73
f 84/84/38 83/83/73 80/80/37
f 83/83/73 85/85/74 74/74/67
f 83/83/73 84/84/38 86/86/40
f 85/85/74 83/83/73 86/86/40
f 89/87/75 88/88/75 87/89/75
f 88/88/75 89/87/75 90/90/76
f 93/91/77 92/92/77 91/93/77
f 91/93/77 94/94/77 93/91/77
f 97/95/78 96/96/78 95/97/78
f 95/97/78 98/98/78 97/95/78
f 101/99/79 100/100/79 99/101/80
f 99/101/80 102/102/79 101/99/79
f 105/103/81 104/104/82 103/105/83
f 103/105/83 106/106/83 105/103/81
f 107/107/84 106/106/83 103/105/83
f 103/105/83 108/108/84 107/107/84
f 111/109/85 110/110/86 109/111/86
f 110/110/86 111/109/85 112/112/85
f 113/113/87 112/112/85 111/109/85
f 111/109/85 114/114/88 113/113/87
f 117/115/89 116/116/89 115/117/90
f 115/117/90 118/118/90 117/115/89
f 119/119/91 118/118/90 115/117/90
f 115/117/90 120/120/91 119/119/91
f 123/121/92 122/122/92 121/123/92
f 121/123/92 124/124/93 123/121/92
f 127/125/94 126/126/94 125/127/94
f 125/127/94 128/128/94 127/125/94
f 131/129/95 130/130/95 129/131/95
f 131/129/95 132/132/95 130/130/95
f 135/133/96 134/134/97 133/135/97
f 133/135/97 136/136/96 135/133/96
f 139/137/98 138/138/99 137/139/99
f 138/138/99 139/137/98 140/140/98
f 143/141/100 142/142/100 141/143/100
f 141/143/100 144/144/101 143/141/100
f 147/145/102 146/146/102 145/147/102
f 145/147/102 148/148/102 147/145/102
f 151/149/103 150/150/104 149/151/103
f 149/151/103 152/152/103 151/149/103
f 155/153/105 154/154/105 153/155/105
f 155/153/105 156/156/105 154/154/105
f 159/157/106 158/158/107 157/159/106
f 157/159/106 160/160/106 159/157/106
f 163/161/108 162/162/109 161/163/110
f 161/163/110 164/164/111 163/161/108
f 163/161/108 164/164/111 165/165/112
f 165/165/112 166/166/113 163/161/108
f 165/165/112 164/164/111 167/167/114
f 165/165/112 167/167/114 168/168/115
f 161/163/110 169/169/116 164/164/111
f 169/169/116 170/170/117 164/164/111
f 169/169/116 161/163/110 171/171/118
f 170/170/117 169/169/116 172/172/119
f 173/173/120 172/172/119 169/169/116
f 171/171/118 173/173/120 169/169/116
f 166/166/113 165/165/112 174/174/121
f 174/174/121 175/175/122 166/166/113
f 176/176/123 175/175/122 174/174/121
f 174/174/121 177/177/124 176/176/123
f 178/178/125 176/176/123 177/177/124
f 173/173/120 179/179/126 172/172/119
f 180/180/127 179/179/126 173/173/120
f 180/180/127 181/181/128 179/179/126
f 179/179/126 181/181/128 182/182/129
f 182/182/129 183/183/130 179/179/126
f 184/184/131 179/179/126 183/183/130
f 172/172/119 179/179/126 184/184/131
f 183/183/130 185/185/132 184/184/131
f 177/177/124 186/186/133 178/178/125
f 186/186/133 187/187/134 178/178/125
f 188/188/135 187/187/134 186/186/133
f 188/188/135 186/186/133 177/177/124
f 189/189/136 187/187/134 188/188/135
f 190/190/137 189/189/136 188/188/135
f 188/188/135 177/177/124 190/190/137
f 190/190/137 191/191/138 189/189/136
f 192/192/139 191/191/138 190/190/137
f 192/192/139 193/193/140 191/191/138
f 192/192/139 194/194/141 193/193/140
f 168/168/115 190/190/137 177/177/124
f 190/190/137 168/168/115 192/192/139
f 195/195/142 194/194/141 192/192/139
f 195/195/142 192/192/139 168/168/115
f 196/196/143 194/194/141 195/195/142
f 197/197/144 196/196/143 195/195/142
f 195/195/142 167/167/114 197/197/144
f 168/168/115 167/167/114 195/195/142
f 168/168/115 177/177/124 198/198/145
f 174/174/121 198/198/145 177/177/124
f 198/198/145 199/199/146 168/168/115
f 168/168/115 199/199/146 165/165/112
f 174/174/121 165/165/112 200/200/147
f 174/174/121 200/200/147 198/198/145
f 198/198/145 200/200/147 199/199/146
f 199/199/146 200/200/147 165/165/112
f 201/201/148 197/197/144 167/167/114
f 201/201/148 202/202/149 197/197/144
f 203/203/150 202/202/149 201/201/148
f 201/201/148 204/204/151 203/203/150
f 204/204/151 205/205/152 203/203/150
f 201/201/148 206/206/153 204/204/151
f 204/204/151 207/207/154 205/205/152
f 206/206/153 207/207/154 204/204/151
f 172/172/119 206/206/153 201/201/148
f 167/167/114 172/172/119 201/201/148
f 208/208/155 205/205/152 207/207/154
f 208/208/155 209/209/156 205/205/152
f 185/185/132 209/209/156 208/208/155
f 208/208/155 184/184/131 185/185/132
f 184/184/131 208/208/155 207/207/154
f 207/207/154 206/206/153 184/184/131
f 184/184/131 206/206/153 172/172/119
f 210/210/157 172/172/119 167/167/114
f 172/172/119 210/210/157 170/170/117
f 167/167/114 211/211/158 210/210/157
f 211/211/158 167/167/114 164/164/111
f 170/170/117 212/212/159 164/164/111
f 164/164/111 212/212/159 211/211/158
f 213/213/160 210/210/157 211/211/158
f 210/210/157 213/213/160 170/170/117
f 214/214/161 211/211/158 212/212/159
f 211/211/158 214/214/161 213/213/160
f 215/215/162 212/212/159 170/170/117
f 212/212/159 215/215/162 214/214/161
f 213/213/160 216/216/163 170/170/117
f 170/170/117 216/216/163 215/215/162
f 215/215/162 217/217/164 214/214/161
f 214/214/161 217/217/164 213/213/160
f 216/216/163 217/217/164 215/215/162
f 213/213/160 217/217/164 216/216/163
f 220/218/165 219/219/166 218/220/167
f 218/220/167 221/221/168 220/218/165
f 222/222/129 220/218/165 221/221/168
f 223/223/169 221/221/168 218/220/167
f 218/220/167 224/224/170 223/223/169
f 224/224/170 225/225/171 223/223/169
f 225/225/171 224/224/170 226/226/172
f 224/224/170 218/220/167 227/227/173
f 227/227/173 228/228/174 224/224/170
f 226/226/172 224/224/170 228/228/174
f 221/221/168 229/229/130 222/222/129
f 229/229/130 221/221/168 230/230/175
f 223/223/169 230/230/175 221/221/168
f 230/230/175 231/231/132 229/229/130
f 226/226/172 228/228/174 232/232/176
f 233/233/177 226/226/172 232/232/176
f 232/232/176 228/228/174 234/234/178
f 232/232/176 235/235/179 233/233/177
f 236/236/180 226/226/172 233/233/177
f 237/237/181 236/236/180 233/233/177
f 231/231/132 230/230/175 238/238/182
f 238/238/182 239/239/156 231/231/132
f 238/238/182 240/240/152 239/239/156
f 241/241/183 238/238/182 230/230/175
f 238/238/182 241/241/183 240/240/152
f 230/230/175 242/242/184 241/241/183
f 223/223/169 242/242/184 230/230/175
f 243/243/185 240/240/152 241/241/183
f 243/243/185 241/241/183 242/242/184
f 243/243/185 244/244/186 240/240/152
f 242/242/184 245/245/187 243/243/185
f 244/244/186 243/243/185 245/245/187
f 245/245/187 242/242/184 223/223/169
f 223/223/169 236/236/180 245/245/187
f 245/245/187 246/246/149 244/244/186
f 247/247/188 246/246/149 245/245/187
f 245/245/187 236/236/180 247/247/188
f 223/223/169 248/248/189 236/236/180
f 225/225/171 248/248/189 223/223/169
f 247/247/188 236/236/180 249/249/190
f 249/249/190 250/250/143 247/247/188
f 249/249/190 251/251/191 250/250/143
f 252/252/192 251/251/191 249/249/190
f 253/253/140 251/251/191 252/252/192
f 254/254/138 253/253/140 252/252/192
f 237/237/181 249/249/190 236/236/180
f 237/237/181 252/252/192 249/249/190
f 252/252/192 255/255/193 254/254/138
f 252/252/192 237/237/181 255/255/193
f 256/256/136 254/254/138 255/255/193
f 248/248/189 257/257/194 236/236/180
f 226/226/172 236/236/180 257/257/194
f 226/226/172 258/258/195 225/225/171
f 257/257/194 258/258/195 226/226/172
f 248/248/189 259/259/196 257/257/194
f 259/259/196 248/248/189 225/225/171
f 257/257/194 260/260/197 258/258/195
f 257/257/194 259/259/196 260/260/197
f 225/225/171 258/258/195 261/261/198
f 260/260/197 261/261/198 258/258/195
f 225/225/171 262/262/199 259/259/196
f 261/261/198 262/262/199 225/225/171
f 260/260/197 263/263/200 261/261/198
f 259/259/196 263/263/200 260/260/197
f 262/262/199 263/263/200 259/259/196
f 261/261/198 263/263/200 262/262/199
f 255/255/193 264/264/201 256/256/136
f 264/264/201 265/265/134 256/256/136
f 266/266/202 265/265/134 264/264/201
f 266/266/202 264/264/201 255/255/193
f 267/267/203 265/265/134 266/266/202
f 268/268/204 266/266/202 255/255/193
f 267/267/203 266/266/202 268/268/204
f 267/267/203 268/268/204 269/269/205
f 237/237/181 268/268/204 255/255/193
f 270/270/206 269/269/205 268/268/204
f 269/269/205 270/270/206 271/271/207
f 235/235/179 271/271/207 270/270/206
f 270/270/206 233/233/177 235/235/179
f 272/272/208 268/268/204 237/237/181
f 268/268/204 272/272/208 270/270/206
f 270/270/206 273/273/209 233/233/177
f 272/272/208 273/273/209 270/270/206
f 237/237/181 274/274/210 272/272/208
f 233/233/177 274/274/210 237/237/181
f 274/274/210 273/273/209 272/272/208
f 274/274/210 233/233/177 273/273/209
f 277/275/129 276/276/211 275/277/212
f 275/277/212 276/276/211 278/278/213
f 278/278/213 276/276/211 279/279/214
f 278/278/213 279/279/214 280/280/215
f 278/278/213 280/280/215 281/281/216
f 278/278/213 281/281/216 282/282/167
f 282/282/167 281/281/216 283/283/217
f 283/283/217 281/281/216 284/284/218
f 284/284/218 285/285/219 283/283/217
f 284/284/218 286/286/220 285/285/219
f 287/287/221 284/284/218 281/281/216
f 281/281/216 280/280/215 287/287/221
f 287/287/221 286/286/220 284/284/218
f 287/287/221 280/280/215 288/288/222
f 288/288/222 280/280/215 279/279/214
f 289/289/223 286/286/220 287/287/221
f 288/288/222 289/289/223 287/287/221
f 290/290/224 286/286/220 289/289/223
f 291/291/217 290/290/224 289/289/223
f 289/289/223 288/288/222 291/291/217
f 291/291/217 288/288/222 292/292/225
f 279/279/214 292/292/225 288/288/222
f 293/293/167 291/291/217 292/292/225
f 294/294/173 293/293/167 292/292/225
f 292/292/225 279/279/214 295/295/226
f 292/292/225 296/296/227 294/294/173
f 296/296/227 292/292/225 295/295/226
f 295/295/226 297/297/228 296/296/227
f 297/297/228 295/295/226 298/298/229
f 298/298/229 295/295/226 299/299/230
f 295/295/226 279/279/214 299/299/230
f 279/279/214 276/276/211 299/299/230
f 299/299/230 276/276/211 300/300/231
f 299/299/230 300/300/231 298/298/229
f 300/300/231 276/276/211 301/301/232
f 298/298/229 300/300/231 301/301/232
f 301/301/232 276/276/211 302/302/233
f 301/301/232 302/302/233 303/303/234
f 303/303/234 304/304/235 301/301/232
f 304/304/235 305/305/236 301/301/232
f 301/301/232 305/305/236 298/298/229
f 296/296/227 306/306/237 294/294/173
f 307/307/178 296/296/227 297/297/228
f 306/306/237 296/296/227 307/307/178
f 307/307/178 297/297/228 308/308/238
f 307/307/178 309/309/239 306/306/237
f 309/309/239 310/310/240 306/306/237
f 308/308/238 311/311/241 307/307/178
f 306/306/237 312/312/242 294/294/173
f 306/306/237 310/310/240 312/312/242
f 294/294/173 312/312/242 313/313/243
f 312/312/242 310/310/240 314/314/244
f 312/312/242 314/314/244 313/313/243
f 314/314/244 310/310/240 315/315/245
f 313/313/243 314/314/244 315/315/245
f 315/315/245 316/316/178 313/313/243
f 317/317/246 311/311/241 308/308/238
f 311/311/241 317/317/246 318/318/247
f 318/318/247 319/319/179 311/311/241
f 317/317/246 320/320/248 318/318/247
f 321/321/249 320/320/248 317/317/246
f 308/308/238 321/321/249 317/317/246
f 322/322/250 320/320/248 321/321/249
f 308/308/238 322/322/250 321/321/249
f 323/323/247 320/320/248 322/322/250
f 324/324/251 323/323/247 322/322/250
f 324/324/251 322/322/250 308/308/238
f 323/323/247 324/324/251 325/325/179
f 326/326/207 325/325/179 324/324/251
f 324/324/251 327/327/252 326/326/207
f 328/328/253 326/326/207 327/327/252
f 329/329/254 326/326/207 328/328/253
f 330/330/203 329/329/254 328/328/253
f 324/324/251 308/308/238 331/331/255
f 331/331/255 327/327/252 324/324/251
f 308/308/238 297/297/228 331/331/255
f 328/328/253 332/332/256 330/330/203
f 332/332/256 333/333/134 330/330/203
f 334/334/257 333/333/134 332/332/256
f 334/334/257 332/332/256 328/328/253
f 335/335/258 333/333/134 334/334/257
f 335/335/258 334/334/257 336/336/259
f 328/328/253 336/336/259 334/334/257
f 337/337/260 335/335/258 336/336/259
f 336/336/259 338/338/261 337/337/260
f 339/339/262 337/337/260 338/338/261
f 340/340/263 336/336/259 328/328/253
f 341/341/264 338/338/261 336/336/259
f 336/336/259 340/340/263 341/341/264
f 342/342/265 338/338/261 341/341/264
f 338/338/261 342/342/265 339/339/262
f 339/339/262 342/342/265 343/343/266
f 339/339/262 343/343/266 344/344/267
f 344/344/267 345/345/268 339/339/262
f 341/341/264 346/346/269 342/342/265
f 341/341/264 340/340/263 346/346/269
f 347/347/270 342/342/265 346/346/269
f 328/328/253 348/348/271 340/340/263
f 327/327/252 348/348/271 328/328/253
f 349/349/272 340/340/263 348/348/271
f 348/348/271 327/327/252 349/349/272
f 350/350/273 346/346/269 340/340/263
f 349/349/272 350/350/273 340/340/263
f 351/351/274 349/349/272 327/327/252
f 351/351/274 350/350/273 349/349/272
f 352/352/275 346/346/269 350/350/273
f 346/346/269 352/352/275 347/347/270
f 350/350/273 353/353/276 352/352/275
f 351/351/274 353/353/276 350/350/273
f 352/352/275 353/353/276 354/354/277
f 347/347/270 352/352/275 354/354/277
f 354/354/277 353/353/276 351/351/274
f 327/327/252 355/355/278 351/351/274
f 351/351/274 355/355/278 354/354/277
f 327/327/252 331/331/255 355/355/278
f 347/347/270 354/354/277 356/356/279
f 356/356/279 357/357/280 347/347/270
f 358/358/281 354/354/277 355/355/278
f 356/356/279 354/354/277 358/358/281
f 357/357/280 356/356/279 359/359/282
f 358/358/281 359/359/282 356/356/279
f 359/359/282 360/360/283 357/357/280
f 360/360/283 359/359/282 361/361/284
f 361/361/284 362/362/285 360/360/283
f 363/363/286 362/362/285 361/361/284
f 355/355/278 331/331/255 364/364/287
f 355/355/278 364/364/287 358/358/281
f 359/359/282 358/358/281 365/365/288
f 365/365/288 358/358/281 364/364/287
f 364/364/287 331/331/255 366/366/289
f 364/364/287 366/366/289 365/365/288
f 331/331/255 297/297/228 366/366/289
f 366/366/289 297/297/228 367/367/290
f 367/367/290 365/365/288 366/366/289
f 365/365/288 368/368/291 359/359/282
f 359/359/282 368/368/291 361/361/284
f 361/361/284 369/369/292 363/363/286
f 370/370/293 363/363/286 369/369/292
f 297/297/228 371/371/294 367/367/290
f 298/298/229 371/371/294 297/297/228
f 372/372/295 365/365/288 367/367/290
f 365/365/288 372/372/295 368/368/291
f 373/373/296 367/367/290 371/371/294
f 373/373/296 371/371/294 298/298/229
f 367/367/290 373/373/296 372/372/295
f 369/369/292 374/374/297 370/370/293
f 375/375/298 370/370/293 374/374/297
f 298/298/229 376/376/299 373/373/296
f 376/376/299 298/298/229 305/305/236
f 377/377/300 376/376/299 305/305/236
f 305/305/236 378/378/301 377/377/300
f 378/378/301 379/379/302 377/377/300
f 376/376/299 377/377/300 380/380/303
f 377/377/300 379/379/302 380/380/303
f 373/373/296 376/376/299 381/381/304
f 380/380/303 381/381/304 376/376/299
f 372/372/295 373/373/296 382/382/305
f 381/381/304 382/382/305 373/373/296
f 380/380/303 379/379/302 383/383/306
f 383/383/306 379/379/302 384/384/301
f 383/383/306 384/384/301 385/385/236
f 380/380/303 383/383/306 386/386/307
f 383/383/306 385/385/236 386/386/307
f 386/386/307 381/381/304 380/380/303
f 386/386/307 385/385/236 387/387/235
f 388/388/308 381/381/304 386/386/307
f 388/388/308 382/382/305 381/381/304
f 382/382/305 389/389/309 372/372/295
f 368/368/291 372/372/295 389/389/309
f 387/387/235 390/390/310 386/386/307
f 388/388/308 386/386/307 390/390/310
f 391/391/311 389/389/309 382/382/305
f 382/382/305 388/388/308 391/391/311
f 389/389/309 392/392/312 368/368/291
f 392/392/312 361/361/284 368/368/291
f 393/393/313 392/392/312 389/389/309
f 393/393/313 361/361/284 392/392/312
f 389/389/309 391/391/311 393/393/313
f 369/369/292 361/361/284 393/393/313
f 393/393/313 391/391/311 394/394/314
f 369/369/292 393/393/313 394/394/314
f 395/395/315 391/391/311 388/388/308
f 395/395/315 394/394/314 391/391/311
f 390/390/310 396/396/316 388/388/308
f 396/396/316 395/395/315 388/388/308
f 395/395/315 396/396/316 397/397/317
f 396/396/316 390/390/310 398/398/318
f 398/398/318 397/397/317 396/396/316
f 394/394/314 399/399/319 369/369/292
f 374/374/297 369/369/292 399/399/319
f 400/400/320 394/394/314 395/395/315
f 395/395/315 397/397/317 400/400/320
f 394/394/314 400/400/320 401/401/321
f 401/401/321 399/399/319 394/394/314
f 399/399/319 402/402/322 374/374/297
f 374/374/297 402/402/322 375/375/298
f 403/403/323 401/401/321 400/400/320
f 400/400/320 397/397/317 403/403/323
f 404/404/324 403/403/323 397/397/317
f 399/399/319 401/401/321 405/405/325
f 405/405/325 402/402/322 399/399/319
f 405/405/325 401/401/321 403/403/323
f 403/403/323 406/406/326 405/405/325
f 403/403/323 404/404/324 407/407/327
f 403/403/323 407/407/327 406/406/326
f 402/402/322 405/405/325 408/408/328
f 406/406/326 408/408/328 405/405/325
f 409/409/329 375/375/298 402/402/322
f 408/408/328 410/410/330 402/402/322
f 402/402/322 410/410/330 409/409/329
f 375/375/298 409/409/329 411/411/331
f 411/411/331 412/412/332 375/375/298
f 410/410/330 413/413/333 409/409/329
f 413/413/333 410/410/330 408/408/328
f 411/411/331 409/409/329 413/413/333
f 408/408/328 414/414/334 413/413/333
f 406/406/326 414/414/334 408/408/328
f 415/415/335 411/411/331 413/413/333
f 415/415/335 413/413/333 414/414/334
f 416/416/336 412/412/332 411/411/331
f 416/416/336 411/411/331 415/415/335
f 417/417/337 416/416/336 415/415/335
f 417/417/337 415/415/335 418/418/338
f 414/414/334 419/419/339 415/415/335
f 419/419/339 414/414/334 406/406/326
f 415/415/335 419/419/339 418/418/338
f 406/406/326 418/418/338 419/419/339
f 420/420/340 412/412/332 416/416/336
f 416/416/336 417/417/337 420/420/340
f 421/421/262 412/412/332 420/420/340
f 422/422/341 412/412/332 421/421/262
f 421/421/262 423/423/342 422/422/341
f 424/424/268 423/423/342 421/421/262
f 420/420/340 425/425/260 421/421/262
f 425/425/260 420/420/340 417/417/337
f 426/426/258 425/425/260 417/417/337
f 417/417/337 427/427/343 426/426/258
f 427/427/343 428/428/134 426/426/258
f 417/417/337 429/429/344 427/427/343
f 429/429/344 428/428/134 427/427/343
f 417/417/337 418/418/338 429/429/344
f 430/430/125 428/428/134 429/429/344
f 430/430/125 429/429/344 418/418/338
f 418/418/338 431/431/345 430/430/125
f 432/432/122 431/431/345 418/418/338
f 418/418/338 406/406/326 432/432/122
f 406/406/326 407/407/327 432/432/122
f 407/407/327 433/433/113 432/432/122
f 434/434/346 433/433/113 407/407/327
f 407/407/327 435/435/347 434/434/346
f 435/435/347 436/436/348 434/434/346
f 435/435/347 407/407/327 404/404/324
f 437/437/349 436/436/348 435/435/347
f 404/404/324 437/437/349 435/435/347
f 438/438/350 436/436/348 437/437/349
f 404/404/324 438/438/350 437/437/349
f 439/439/346 436/436/348 438/438/350
f 439/439/346 438/438/350 440/440/351
f 438/438/350 404/404/324 440/440/351
f 440/440/351 441/441/113 439/439/346
f 442/442/109 440/440/351 404/404/324
f 404/404/324 397/397/317 442/442/109
f 443/443/352 442/442/109 397/397/317
f 397/397/317 398/398/318 443/443/352
f 444/444/353 442/442/109 443/443/352
f 444/444/353 445/445/354 442/442/109
f 444/444/353 446/446/355 445/445/354
f 444/444/353 443/443/352 447/447/118
f 448/448/356 446/446/355 444/444/353
f 447/447/118 448/448/356 444/444/353
f 447/447/118 443/443/352 449/449/357
f 398/398/318 449/449/357 443/443/352
f 449/449/357 450/450/120 447/447/118
f 448/448/356 447/447/118 451/451/358
f 452/452/359 450/450/120 449/449/357
f 453/453/360 446/446/355 448/448/356
f 451/451/358 453/453/360 448/448/356
f 454/454/361 446/446/355 453/453/360
f 454/454/361 453/453/360 451/451/358
f 455/455/109 454/454/361 451/451/358
f 449/449/357 456/456/362 452/452/359
f 457/457/363 449/449/357 398/398/318
f 456/456/362 449/449/357 457/457/363
f 452/452/359 456/456/362 458/458/364
f 458/458/364 459/459/365 452/452/359
f 458/458/364 460/460/366 459/459/365
f 456/456/362 461/461/367 458/458/364
f 461/461/367 460/460/366 458/458/364
f 457/457/363 462/462/368 456/456/362
f 462/462/368 461/461/367 456/456/362
f 463/463/369 460/460/366 461/461/367
f 464/464/370 460/460/366 463/463/369
f 465/465/359 464/464/370 463/463/369
f 466/466/371 463/463/369 461/461/367
f 463/463/369 466/466/371 465/465/359
f 461/461/367 462/462/368 466/466/371
f 467/467/120 465/465/359 466/466/371
f 467/467/120 466/466/371 468/468/372
f 468/468/372 466/466/371 462/462/368
f 457/457/363 468/468/372 462/462/368
f 457/457/363 469/469/211 468/468/372
f 468/468/372 469/469/211 470/470/373
f 470/470/373 469/469/211 471/471/129
f 472/472/374 469/469/211 457/457/363
f 398/398/318 472/472/374 457/457/363
f 473/473/233 469/469/211 472/472/374
f 472/472/374 398/398/318 474/474/375
f 474/474/375 473/473/233 472/472/374
f 390/390/310 474/474/375 398/398/318
f 475/475/234 473/473/233 474/474/375
f 476/476/376 474/474/375 390/390/310
f 476/476/376 390/390/310 387/387/235
f 474/474/375 477/477/377 475/475/234
f 476/476/376 477/477/377 474/474/375
f 477/477/377 478/478/378 475/475/234
f 387/387/235 479/479/379 476/476/376
f 479/479/379 387/387/235 480/480/234
f 480/480/234 478/478/378 479/479/379
f 476/476/376 481/481/380 477/477/377
f 479/479/379 481/481/380 476/476/376
f 478/478/378 481/481/380 479/479/379
f 477/477/377 481/481/380 478/478/378
f 484/482/381 483/483/382 482/484/383
f 482/484/383 485/485/384 484/482/381
f 486/486/385 484/482/381 485/485/384
f 482/484/383 487/487/386 485/485/384
f 485/485/384 488/488/387 486/486/385
f 488/488/387 485/485/384 487/487/386
f 486/486/385 488/488/387 489/489/388
f 490/490/389 489/489/388 488/488/387
f 488/488/387 487/487/386 491/491/390
f 490/490/389 488/488/387 491/491/390
f 491/491/390 487/487/386 492/492/391
f 491/491/390 493/493/392 490/490/389
f 493/493/392 491/491/390 492/492/391
f 492/492/391 494/494/393 493/493/392
f 497/495/394 496/496/393 495/497/395
f 495/497/395 498/498/396 497/495/394
f 498/498/396 495/497/395 499/499/386
f 497/495/394 498/498/396 500/500/397
f 498/498/396 499/499/386 500/500/397
f 500/500/397 501/501/398 497/495/394
f 501/501/398 500/500/397 502/502/399
f 502/502/399 500/500/397 499/499/386
f 502/502/399 503/503/400 501/501/398
f 503/503/400 502/502/399 504/504/401
f 502/502/399 499/499/386 504/504/401
f 504/504/401 505/505/402 503/503/400
f 505/505/402 504/504/401 506/506/403
f 504/504/401 507/507/404 506/506/403
f 507/507/404 504/504/401 499/499/386
f 507/507/404 508/508/405 506/506/403
f 507/507/404 509/509/406 508/508/405
f 507/507/404 499/499/386 509/509/406
f 510/510/407 508/508/405 509/509/406
f 511/511/408 509/509/406 499/499/386
f 509/509/406 511/511/408 510/510/407
f 511/511/408 499/499/386 512/512/409
f 510/510/407 511/511/408 512/512/409
f 512/512/409 513/513/382 510/510/407
f 516/514/410 515/515/411 514/516/412
f 517/517/413 516/514/410 514/516/412
f 518/518/414 516/514/410 517/517/413
f 517/517/413 519/519/415 518/518/414
f 520/520/416 517/517/413 514/516/412
f 520/520/416 519/519/415 517/517/413
f 514/516/412 521/521/417 520/520/416
f 521/521/417 514/516/412 522/522/418
f 520/520/416 523/523/419 519/519/415
f 523/523/419 520/520/416 521/521/417
f 524/524/420 519/519/415 523/523/419
f 523/523/419 525/525/421 524/524/420
f 523/523/419 526/526/422 525/525/421
f 521/521/417 526/526/422 523/523/419
f 525/525/421 526/526/422 527/527/423
f 522/522/418 528/528/424 521/521/417
f 526/526/422 521/521/417 528/528/424
f 528/528/424 522/522/418 529/529/425
f 528/528/424 530/530/426 526/526/422
f 530/530/426 528/528/424 529/529/425
f 533/531/427 532/532/428 531/533/429
f 532/532/428 534/534/430 531/533/429
f 534/534/430 532/532/428 535/535/431
f 536/536/432 531/533/429 534/534/430
f 537/537/433 535/535/431 532/532/428
f 534/534/430 538/538/434 536/536/432
f 539/539/435 538/538/434 534/534/430
f 535/535/431 539/539/435 534/534/430
f 539/539/435 540/540/436 538/538/434
f 540/540/436 539/539/435 535/535/431
f 541/541/437 538/538/434 540/540/436
f 540/540/436 542/542/438 541/541/437
f 543/543/439 542/542/438 540/540/436
f 535/535/431 543/543/439 540/540/436
f 542/542/438 543/543/439 544/544/440
f 545/545/441 543/543/439 535/535/431
f 546/546/442 535/535/431 537/537/433
f 535/535/431 546/546/442 545/545/441
f 546/546/442 537/537/433 547/547/443
f 545/545/441 546/546/442 547/547/443
f 550/548/444 549/549/445 548/550/446
f 549/549/445 551/551/447 548/550/446
f 552/552/448 548/550/446 551/551/447
f 551/551/447 553/553/449 552/552/448
f 554/554/450 551/551/447 549/549/445
f 554/554/450 553/553/449 551/551/447
f 549/549/445 555/555/451 554/554/450
f 556/556/452 555/555/451 549/549/445
f 554/554/450 557/557/453 553/553/449
f 557/557/453 554/554/450 555/555/451
f 558/558/454 553/553/449 557/557/453
f 557/557/453 559/559/455 558/558/454
f 560/560/456 559/559/455 557/557/453
f 555/555/451 560/560/456 557/557/453
f 559/559/455 560/560/456 561/561/457
f 556/556/452 562/562/458 555/555/451
f 560/560/456 555/555/451 562/562/458
f 562/562/458 556/556/452 563/563/459
f 562/562/458 564/564/460 560/560/456
f 564/564/460 562/562/458 563/563/459
f 567/565/461 566/566/462 565/567/463
f 567/565/461 568/568/464 566/566/462
f 565/567/463 569/569/465 567/565/461
f 570/570/466 567/565/461 569/569/465
f 569/569/465 565/567/463 571/571/467
f 572/572/468 568/568/464 567/565/461
f 572/572/468 573/573/469 568/568/464
f 573/573/469 572/572/468 574/574/470
f 575/575/471 574/574/470 572/572/468
f 576/576/472 572/572/468 567/565/461
f 572/572/468 576/576/472 575/575/471
f 570/570/466 576/576/472 567/565/461
f 577/577/473 575/575/471 576/576/472
f 577/577/473 576/576/472 570/570/466
f 578/578/474 575/575/471 577/577/473
f 579/579/475 578/578/474 577/577/473
f 580/580/476 569/569/465 571/571/467
f 569/569/465 580/580/476 570/570/466
f 577/577/473 581/581/477 579/579/475
f 581/581/477 577/577/473 570/570/466
f 571/571/467 582/582/478 580/580/476
f 582/582/478 571/571/467 583/583/479
f 584/584/480 582/582/478 583/583/479
f 585/585/481 579/579/475 581/581/477
f 586/586/482 579/579/475 585/585/481
f 587/587/483 586/586/482 585/585/481
f 588/588/484 570/570/466 580/580/476
f 588/588/484 580/580/476 582/582/478
f 589/589/485 581/581/477 570/570/466
f 585/585/481 581/581/477 589/589/485
f 588/588/484 589/589/485 570/570/466
f 590/590/486 589/589/485 588/588/484
f 591/591/487 588/588/484 582/582/478
f 582/582/478 584/584/480 591/591/487
f 588/588/484 591/591/487 590/590/486
f 592/592/488 585/585/481 589/589/485
f 585/585/481 592/592/488 587/587/483
f 592/592/488 589/589/485 590/590/486
f 592/592/488 593/593/489 587/587/483
f 590/590/486 593/593/489 592/592/488
f 594/594/490 587/587/483 593/593/489
f 595/595/491 594/594/490 593/593/489
f 596/596/492 591/591/487 584/584/480
f 590/590/486 591/591/487 596/596/492
f 597/597/493 593/593/489 590/590/486
f 593/593/489 597/597/493 595/595/491
f 597/597/493 590/590/486 598/598/494
f 596/596/492 598/598/494 590/590/486
f 595/595/491 597/597/493 599/599/495
f 598/598/494 599/599/495 597/597/493
f 600/600/496 595/595/491 599/599/495
f 601/601/497 600/600/496 599/599/495
f 596/596/492 584/584/480 602/602/498
f 602/602/498 584/584/480 603/603/479
f 599/599/495 604/604/499 601/601/497
f 604/604/499 599/599/495 598/598/494
f 598/598/494 596/596/492 605/605/500
f 602/602/498 605/605/500 596/596/492
f 606/606/501 602/602/498 603/603/479
f 607/607/502 606/606/501 603/603/479
f 606/606/501 607/607/502 608/608/463
f 604/604/499 609/609/503 601/601/497
f 610/610/504 601/601/497 609/609/503
f 611/611/505 610/610/504 609/609/503
f 604/604/499 598/598/494 612/612/506
f 612/612/506 609/609/503 604/604/499
f 605/605/500 612/612/506 598/598/494
f 613/613/507 612/612/506 605/605/500
f 614/614/508 605/605/500 602/602/498
f 606/606/501 614/614/508 602/602/498
f 605/605/500 614/614/508 613/613/507
f 615/615/509 609/609/503 612/612/506
f 609/609/503 615/615/509 611/611/505
f 613/613/507 615/615/509 612/612/506
f 611/611/505 615/615/509 616/616/510
f 613/613/507 616/616/510 615/615/509
f 611/611/505 616/616/510 617/617/511
f 618/618/512 617/617/511 616/616/510
f 614/614/508 606/606/501 619/619/513
f 613/613/507 614/614/508 619/619/513
f 620/620/514 616/616/510 613/613/507
f 616/616/510 620/620/514 618/618/512
f 621/621/515 620/620/514 613/613/507
f 613/613/507 619/619/513 621/621/515
f 622/622/516 621/621/515 619/619/513
f 623/623/517 619/619/513 606/606/501
f 619/619/513 623/623/517 622/622/516
f 608/608/463 623/623/517 606/606/501
f 608/608/463 622/622/516 623/623/517
f 622/622/516 608/608/463 624/624/462
f 618/618/512 620/620/514 625/625/518
f 621/621/515 625/625/518 620/620/514
f 618/618/512 625/625/518 626/626/519
f 627/627/520 626/626/519 625/625/518
f 628/628/521 625/625/518 621/621/515
f 625/625/518 628/628/521 627/627/520
f 622/622/516 628/628/521 621/621/515
f 629/629/522 627/627/520 628/628/521
f 622/622/516 629/629/522 628/628/521
f 627/627/520 629/629/522 630/630/523
f 631/631/524 630/630/523 629/629/522
f 632/632/525 629/629/522 622/622/516
f 624/624/462 632/632/525 622/622/516
f 629/629/522 632/632/525 631/631/524
f 624/624/462 633/633/526 632/632/525
f 633/633/526 631/631/524 632/632/525
f 634/634/464 633/633/526 624/624/462
f 631/631/524 633/633/526 635/635/527
f 633/633/526 634/634/464 636/636/469
f 636/636/469 635/635/527 633/633/526
