# Blender v3.6.2 OBJ File: ''
# www.blender.org
mtllib Lighting Reed.mtl
o lightning_reed_mesh
v 0.281404 3.063045 0.385656
v 0.106817 2.901800 0.447393
v 0.424107 3.011347 0.312390
v 0.453651 3.172796 0.286011
v 0.270172 3.272446 0.397276
v 0.423274 3.334890 0.321772
v 0.671884 3.295618 0.144736
v -0.226912 3.063045 0.385656
v -0.369615 3.011347 0.312390
v -0.052325 2.901800 0.447393
v -0.399158 3.172796 0.286011
v -0.215680 3.272446 0.397276
v -0.368782 3.334890 0.321772
v -0.617392 3.295618 0.144736
v -0.027339 -0.004851 -0.076427
v -0.006863 -0.002874 -0.036790
v -0.135013 0.263830 -0.022927
v -0.174139 0.258401 -0.183053
v -0.246387 0.597962 -0.120315
v -0.272357 0.584434 -0.036790
v -0.657494 0.781533 -0.148221
v -0.252265 0.565327 -0.258609
v -0.662701 0.763286 -0.036790
v -0.665023 0.754744 -0.315368
v -0.838914 0.754518 -0.036790
v -0.853750 0.746459 -0.241147
v -0.860789 0.771447 -0.118533
v -0.993738 0.685325 -0.036790
v -1.075121 0.593861 -0.036790
v -0.853750 0.746459 0.167568
v -0.860789 0.771447 0.044953
v -0.657494 0.781533 0.074642
v -0.838914 0.754518 -0.036790
v -0.665023 0.754744 0.241789
v -0.662701 0.763286 -0.036790
v -0.252265 0.565327 0.185030
v -0.272357 0.584434 -0.036790
v -0.246387 0.597962 0.046736
v -0.174139 0.258401 0.097438
v -0.135013 0.263830 -0.022927
v -0.027339 -0.004851 0.002847
v -0.006863 -0.002874 -0.036790
v -0.219208 1.321014 0.003135
v -0.219208 1.321014 -0.076714
v 0.063291 1.351593 -0.076714
v 0.063291 1.351593 0.003135
v 0.011009 1.153991 0.003135
v -0.083303 0.923414 -0.006274
v -0.219208 1.321014 -0.076714
v -0.083303 0.923414 -0.067305
v -0.027565 0.648436 -0.073440
v -0.027565 0.648436 -0.000126
v -0.001630 0.599676 -0.065380
v -0.001630 0.599676 -0.008161
v 0.055232 0.941944 -0.003543
v 0.063654 0.645027 0.000127
v 0.055721 0.599465 -0.008028
v 0.297103 1.261215 0.003135
v 0.172010 1.512244 0.003135
v 0.011009 1.153991 -0.076714
v 0.297103 1.261215 -0.076714
v 0.297103 1.261215 -0.076714
v 0.045232 1.509443 0.003135
v 0.172010 1.512244 -0.076714
v 0.027246 1.690648 0.017629
v -0.011234 1.690648 0.001690
v 0.065726 1.690648 0.001690
v 0.081665 1.690648 -0.036790
v 0.065726 1.690648 -0.075269
v 0.045232 1.509443 0.003135
v 0.063291 1.351593 0.003135
v 0.063291 1.351593 -0.076714
v 0.045232 1.509443 -0.076714
v -0.027173 1.690648 -0.036790
v -0.011234 1.690648 0.001690
v -0.011234 1.690648 -0.075269
v 0.027246 1.690648 -0.091208
v 0.172010 1.512244 -0.076714
v 0.065726 1.690648 -0.075269
v 0.297103 1.261215 -0.076714
v 0.011009 1.153991 -0.076714
v -0.219208 1.321014 -0.076714
v -0.083303 0.923414 -0.067305
v 0.055232 0.941944 -0.070036
v 0.011009 1.153991 0.003135
v -0.027565 0.648436 -0.073440
v 0.055232 0.941944 -0.003543
v 0.063380 0.645466 -0.073440
v -0.001630 0.599676 -0.065380
v 0.063654 0.645027 0.000127
v 0.055589 0.599676 -0.065380
v 0.055721 0.599465 -0.008028
v 0.027246 3.626462 -0.173921
v -0.069721 3.626462 -0.133756
v 0.027246 3.551479 -0.431893
v -0.252134 3.551479 -0.316170
v 0.027246 3.399719 -0.550825
v -0.336232 3.399719 -0.400268
v -0.486790 3.399719 -0.036789
v -0.367858 3.551479 -0.036789
v -0.109885 3.626462 -0.036789
v -0.069721 3.626462 0.060177
v -0.252134 3.551479 0.242591
v -0.336232 3.399719 0.326689
v 0.027246 3.399719 0.477246
v 0.027246 3.551479 0.358314
v 0.027246 3.626462 0.100342
v 0.124213 3.626462 0.060177
v 0.306627 3.551479 0.242591
v 0.390724 3.399719 0.326689
v 0.541282 3.399719 -0.036789
v 0.422350 3.551479 -0.036789
v 0.164378 3.626462 -0.036789
v 0.124213 3.626462 -0.133756
v 0.306627 3.551479 -0.316170
v 0.390724 3.399719 -0.400268
v 0.027246 3.399719 -0.550825
v 0.027246 3.551479 -0.431893
v 0.027246 3.626462 -0.173921
v 0.355342 2.481445 0.259154
v 0.390966 2.456880 0.249931
v 0.250688 2.384663 0.331177
v 0.243667 2.417765 0.300085
v 0.114615 2.439395 0.388040
v 0.132257 2.480675 0.352048
v 0.080208 2.618724 0.410431
v 0.101131 2.620323 0.385846
v 0.149066 2.763365 0.382577
v 0.122883 2.801173 0.421023
v 0.274158 2.813049 0.349325
v 0.279467 2.873190 0.383747
v 0.370783 2.759853 0.290020
v 0.435988 2.785939 0.284364
v 0.439685 2.619196 0.255010
v 0.402612 2.618900 0.263832
v 0.390966 2.456880 0.249931
v 0.355342 2.481445 0.259154
v -0.011234 1.690648 -0.075269
v 0.027246 1.690648 -0.091208
v 0.027246 1.783028 -0.246279
v -0.120885 1.783028 -0.184921
v 0.027246 1.906107 -0.334823
v -0.182243 1.783028 -0.036790
v -0.027173 1.690648 -0.036790
v -0.011234 1.690648 0.001690
v -0.183495 1.906107 -0.247531
v 0.027246 2.225264 -0.439031
v -0.270788 1.906107 -0.036790
v -0.120885 1.783028 0.111342
v -0.257182 2.225264 -0.321217
v 0.027246 2.617040 -0.496766
v -0.379310 2.225264 -0.036789
v -0.305234 2.617040 -0.362042
v 0.027246 2.996209 -0.526226
v 0.027246 1.783028 0.172700
v 0.027246 1.690648 0.017629
v 0.065726 1.690648 0.001690
v -0.183495 1.906107 0.173952
v 0.027246 1.906107 0.261244
v 0.175377 1.783028 0.111342
v 0.027246 2.261565 0.365452
v -0.257182 2.227407 0.252835
v 0.237988 1.906107 0.173952
v 0.236735 1.783028 -0.036790
v 0.081665 1.690648 -0.036790
v 0.065726 1.690648 -0.075269
v 0.325280 1.906107 -0.036790
v 0.175377 1.783028 -0.184921
v 0.027246 1.783028 -0.246279
v 0.027246 1.690648 -0.091208
v 0.027246 1.906107 -0.334823
v 0.237988 1.906107 -0.247531
v 0.027246 2.225264 -0.439031
v 0.433802 2.225264 -0.036789
v 0.311674 2.225264 -0.321217
v 0.027246 2.617040 -0.496766
v 0.359726 2.617040 -0.362042
v 0.027246 2.996209 -0.526226
v 0.311674 2.227407 0.252835
v 0.493900 2.617040 -0.036789
v 0.373330 2.996209 -0.382874
v 0.027246 3.399719 -0.550825
v 0.390724 3.399719 -0.400268
v 0.541282 3.399719 -0.036789
v 0.525006 2.996209 -0.036789
v 0.390966 2.456880 0.249931
v 0.250688 2.384663 0.331177
v 0.439685 2.619196 0.255010
v 0.435988 2.785939 0.284364
v 0.114615 2.439395 0.388040
v 0.027246 2.617040 0.423187
v 0.080208 2.618724 0.410431
v 0.122883 2.801173 0.421023
v 0.027246 2.978357 0.452647
v 0.279467 2.873190 0.383747
v 0.393257 3.055952 0.318673
v 0.390724 3.399719 0.326689
v 0.027246 3.399719 0.477246
v -0.338765 3.055952 0.318673
v -0.336232 3.399719 0.326689
v -0.486790 3.399719 -0.036789
v -0.060123 2.439395 0.388040
v -0.025716 2.618724 0.410431
v -0.196196 2.384663 0.331177
v -0.068391 2.801173 0.421023
v -0.224975 2.873190 0.383747
v -0.336474 2.456880 0.249931
v -0.381496 2.785939 0.284364
v -0.439407 2.617040 -0.036789
v -0.385193 2.619196 0.255010
v -0.470514 2.996209 -0.036789
v -0.318838 2.996209 -0.382874
v -0.336232 3.399719 -0.400268
v 0.027246 3.399719 -0.550825
v -0.003992 -0.004087 -0.068028
v 0.058485 -0.004087 -0.068028
v -0.016540 0.239366 -0.080575
v 0.071032 0.239366 -0.080575
v 0.084192 0.545262 -0.094021
v -0.030272 0.545262 -0.094021
v -0.001630 0.599676 -0.065380
v 0.055589 0.599676 -0.065380
v 0.058485 -0.004087 -0.005551
v 0.055721 0.599465 -0.008028
v 0.071032 0.239366 0.006996
v -0.003992 -0.004087 -0.005551
v 0.084192 0.545262 0.020442
v -0.016540 0.239366 0.006996
v -0.003992 -0.004087 -0.068028
v -0.016540 0.239366 -0.080575
v -0.030272 0.545262 0.020442
v -0.001630 0.599676 -0.008161
v -0.030272 0.545262 -0.094021
v -0.001630 0.599676 -0.065380
v 0.222958 0.425392 -0.100435
v 0.072471 -0.004087 -0.037593
v 0.071793 -0.004087 -0.073901
v 0.256434 0.416650 -0.040990
v 0.400793 0.528817 -0.120641
v 0.239497 0.409387 -0.183819
v 0.405822 0.516223 -0.043822
v 0.404249 0.510330 -0.213777
v 0.532011 0.519430 -0.046181
v 0.539912 0.513870 -0.171346
v 0.546170 0.531113 -0.096453
v 0.638836 0.471681 -0.048177
v 0.694990 0.408561 -0.049227
v 0.544583 0.513870 0.078602
v 0.548039 0.531113 0.003527
v 0.403667 0.528817 0.033130
v 0.532011 0.519430 -0.046181
v 0.410600 0.510330 0.126072
v 0.405822 0.516223 -0.043822
v 0.244845 0.409387 0.102371
v 0.256434 0.416650 -0.040990
v 0.225203 0.425392 0.019664
v 0.073150 -0.004087 -0.001285
v 0.072471 -0.004087 -0.037593
v 0.114050 0.101805 0.204122
v 0.210175 0.064586 0.208265
v 0.157354 0.063757 0.364821
v 0.160786 0.015296 0.092580
v 0.028293 -0.004193 -0.000889
v 0.092090 0.080829 0.338983
v 0.031218 0.056885 0.478556
v 0.029343 0.063437 0.209537
v 0.029253 0.060064 0.343105
v -0.032564 0.080303 0.341941
v -0.092660 0.063161 0.374375
v -0.151488 0.062289 0.210809
v -0.055912 0.100726 0.205317
v -0.103110 0.013620 0.094436
v -0.348120 2.618900 0.263832
v -0.316291 2.759853 0.290020
v -0.316204 2.728430 0.368359
v -0.219666 2.813049 0.349325
v -0.344237 2.609659 0.344873
v -0.242703 2.604216 0.428942
v -0.302630 2.490745 0.337501
v -0.300849 2.481445 0.259154
v -0.189175 2.417765 0.300085
v -0.230870 2.770832 0.415059
v -0.145345 2.735136 0.448586
v -0.094574 2.763365 0.382577
v -0.046639 2.620323 0.385846
v -0.210962 2.447594 0.373237
v -0.130925 2.482632 0.415804
v -0.077765 2.480675 0.352048
v -0.105098 2.608784 0.443569
v -0.069721 3.626462 -0.133756
v 0.027246 3.626462 -0.173921
v -0.029326 3.888799 -0.036718
v -0.109885 3.626462 -0.036789
v 0.027246 3.889748 -0.106835
v -0.069721 3.626462 0.060177
v 0.027246 4.153894 -0.036789
v 0.027246 3.626462 0.100342
v 0.027246 3.888138 0.033684
v 0.083754 3.889090 -0.036718
v 0.027246 3.889748 -0.106835
v 0.124213 3.626462 0.060177
v 0.027246 3.626462 -0.173921
v 0.164378 3.626462 -0.036789
v 0.124213 3.626462 -0.133756
v 0.370696 2.728430 0.368359
v 0.370783 2.759853 0.290020
v 0.402612 2.618900 0.263832
v 0.274158 2.813049 0.349325
v 0.398729 2.609659 0.344873
v 0.297195 2.604216 0.428942
v 0.357122 2.490745 0.337501
v 0.355342 2.481445 0.259154
v 0.243667 2.417765 0.300085
v 0.285362 2.770832 0.415059
v 0.199837 2.735136 0.448586
v 0.149066 2.763365 0.382577
v 0.101131 2.620323 0.385846
v 0.265454 2.447594 0.373237
v 0.185417 2.482632 0.415804
v 0.132257 2.480675 0.352048
v 0.159590 2.608784 0.443569
v 0.423274 3.334890 0.321772
v 0.671884 3.295618 0.144736
v 0.462874 3.245247 0.415379
v 0.270172 3.272446 0.397276
v 0.453651 3.172796 0.286011
v 0.392357 3.046950 0.406784
v 0.281404 3.063045 0.385656
v 0.424107 3.011347 0.312390
v 0.106817 2.901800 0.447393
v -0.368782 3.334890 0.321772
v -0.408382 3.245247 0.415379
v -0.617392 3.295618 0.144736
v -0.215680 3.272446 0.397276
v -0.399158 3.172796 0.286011
v -0.337865 3.046950 0.406784
v -0.226912 3.063045 0.385656
v -0.369615 3.011347 0.312390
v -0.052325 2.901800 0.447393
v -0.025716 2.618724 0.410431
v -0.046639 2.620323 0.385846
v -0.094574 2.763365 0.382577
v -0.077765 2.480675 0.352048
v -0.068391 2.801173 0.421023
v -0.060123 2.439395 0.388040
v -0.219666 2.813049 0.349325
v -0.189175 2.417765 0.300085
v -0.224975 2.873190 0.383747
v -0.196196 2.384663 0.331177
v -0.300849 2.481445 0.259154
v -0.336474 2.456880 0.249931
v -0.348120 2.618900 0.263832
v -0.385193 2.619196 0.255010
v -0.316291 2.759853 0.290020
v -0.381496 2.785939 0.284364
vt 1.720703 0.822754
vt 1.630859 0.783203
vt 1.675781 0.832031
vt 1.726562 0.867676
vt 1.666992 0.888672
vt 1.708984 0.909668
vt 1.792969 0.907715
vt 1.767578 0.753906
vt 1.673828 0.724121
vt 1.716797 0.709961
vt 1.663086 0.680664
vt 1.720703 0.652832
vt 1.675781 0.636719
vt 1.592773 0.647949
vt 1.099609 0.536133
vt 1.104492 0.468262
vt 1.114258 0.469971
vt 1.138672 0.539062
vt 1.122070 0.616211
vt 1.101562 0.618164
vt 1.125977 0.718262
vt 1.154297 0.613281
vt 1.100586 0.717773
vt 1.165039 0.719727
vt 1.099609 0.758789
vt 1.147461 0.764648
vt 1.119141 0.763184
vt 1.099609 0.798340
vt 1.098633 0.827148
vt 1.051758 0.763184
vt 1.081055 0.762695
vt 1.074219 0.717285
vt 1.099609 0.758789
vt 1.036133 0.717773
vt 1.100586 0.717773
vt 1.049805 0.611816
vt 1.101562 0.618164
vt 1.082031 0.615723
vt 1.070312 0.537598
vt 1.099609 0.536133
vt 1.093750 0.469482
vt 1.104492 0.468262
vt 1.889648 0.854980
vt 1.819336 0.866699
vt 1.816406 0.847168
vt 1.886719 0.834961
vt 1.860352 0.791016
vt 1.822266 0.741211
vt 1.795898 0.845703
vt 1.806641 0.740234
vt 1.803711 0.669922
vt 1.822266 0.670898
vt 1.807617 0.656250
vt 1.823242 0.657715
vt 1.857422 0.737305
vt 1.843750 0.664062
vt 1.837891 0.653320
vt 1.936523 0.797363
vt 1.923828 0.866211
vt 1.861328 0.770996
vt 1.938477 0.777344
vt 1.956055 0.800781
vt 1.892578 0.874512
vt 1.943359 0.870117
vt 1.902344 0.919434
vt 1.892578 0.922363
vt 1.912109 0.916992
vt 1.922852 0.916992
vt 1.932617 0.921387
vt 1.910156 0.646973
vt 1.930664 0.648926
vt 1.929688 0.688477
vt 1.910156 0.688477
vt 1.922852 0.737305
vt 1.933594 0.735352
vt 1.913086 0.736816
vt 1.903320 0.734375
vt 1.878906 0.684082
vt 1.892578 0.732422
vt 1.852539 0.622070
vt 1.923828 0.597168
vt 1.980469 0.641113
vt 1.953125 0.541016
vt 1.918945 0.542969
vt 1.903320 0.597168
vt 1.945312 0.471191
vt 1.902344 0.542480
vt 1.922852 0.468994
vt 1.939453 0.458252
vt 1.904297 0.466797
vt 1.923828 0.457764
vt 1.909180 0.455322
vt 1.352539 0.862305
vt 1.368164 0.766602
vt 1.389648 0.789551
vt 1.296875 0.796875
vt 1.318359 0.906250
vt 1.245117 0.817383
vt 1.236328 0.700195
vt 1.291016 0.713867
vt 1.366211 0.734375
vt 1.383789 0.707520
vt 1.335938 0.644531
vt 1.300781 0.601074
vt 1.414062 0.561523
vt 1.414062 0.618652
vt 1.414062 0.696289
vt 1.444336 0.707520
vt 1.492188 0.644531
vt 1.526367 0.601074
vt 1.590820 0.700195
vt 1.537109 0.713867
vt 1.461914 0.734375
vt 1.458984 0.766602
vt 1.531250 0.796875
vt 1.582031 0.817383
vt 1.509766 0.906250
vt 1.475586 0.862305
vt 1.438477 0.789551
vt 1.560547 0.265625
vt 1.609375 0.277100
vt 1.601562 0.284912
vt 1.564453 0.276123
vt 1.520508 0.286377
vt 1.530273 0.296387
vt 1.511719 0.337891
vt 1.519531 0.337402
vt 1.537109 0.376465
vt 1.527344 0.388428
vt 1.580078 0.385254
vt 1.579102 0.402588
vt 1.612305 0.363770
vt 1.630859 0.367676
vt 1.628906 0.319580
vt 1.620117 0.321289
vt 1.609375 0.277100
vt 1.601562 0.284912
vt 1.389648 0.009911
vt 1.452148 0.024689
vt 1.454102 0.036530
vt 1.397461 0.050598
vt 1.335938 0.015121
vt 1.422852 0.081604
vt 1.464844 0.046722
vt 1.480469 0.052887
vt 1.356445 0.070740
vt 1.230469 0.067871
vt 1.394531 0.112610
vt 1.458008 0.100403
vt 1.280273 0.136475
vt 1.134766 0.165283
vt 1.342773 0.189331
vt 1.213867 0.234253
vt 1.072266 0.271484
vt 1.498047 0.106506
vt 1.498047 0.054016
vt 1.515625 0.052765
vt 1.443359 0.138184
vt 1.498047 0.146973
vt 1.538086 0.100098
vt 1.498047 0.240112
vt 1.418945 0.222290
vt 1.552734 0.137817
vt 1.573242 0.080994
vt 1.531250 0.046478
vt 1.541016 0.036194
vt 1.601562 0.111816
vt 1.597656 0.049835
vt 1.605469 0.009079
vt 1.542969 0.024338
vt 1.659180 0.013878
vt 1.639648 0.069641
vt 1.765625 0.065857
vt 1.653320 0.188110
vt 1.715820 0.134888
vt 1.861328 0.162476
vt 1.783203 0.232056
vt 1.924805 0.268066
vt 1.578125 0.221680
vt 1.700195 0.286377
vt 1.835938 0.330811
vt 1.986328 0.372803
vt 1.885742 0.436523
vt 1.772461 0.497314
vt 1.736328 0.387695
vt 1.609375 0.277100
vt 1.560547 0.265625
vt 1.628906 0.319580
vt 1.630859 0.367676
vt 1.520508 0.286377
vt 1.499023 0.338379
vt 1.511719 0.337891
vt 1.527344 0.388428
vt 1.499023 0.438721
vt 1.579102 0.402588
vt 1.626953 0.444092
vt 1.639648 0.537109
vt 1.500000 0.556152
vt 1.372070 0.445068
vt 1.359375 0.538086
vt 1.226562 0.499512
vt 1.476562 0.286377
vt 1.485352 0.338135
vt 1.436523 0.266113
vt 1.470703 0.388672
vt 1.418945 0.403320
vt 1.387695 0.278076
vt 1.367188 0.368652
vt 1.296875 0.287842
vt 1.369141 0.320557
vt 1.261719 0.389404
vt 1.162109 0.333496
vt 1.113281 0.439453
vt 1.011719 0.376709
vt 1.115234 0.073120
vt 1.089844 0.017105
vt 1.104492 0.015617
vt 1.093750 0.073608
vt 1.093750 0.142822
vt 1.116211 0.150513
vt 1.099609 0.160889
vt 1.086914 0.155518
vt 1.074219 0.017334
vt 1.070312 0.154175
vt 1.073242 0.073547
vt 1.059570 0.016373
vt 1.071289 0.140015
vt 1.051758 0.072510
vt 1.044922 0.014107
vt 1.031250 0.070801
vt 1.049805 0.141968
vt 1.054688 0.155884
vt 1.025391 0.148315
vt 1.041016 0.161011
vt 1.407227 0.783691
vt 1.415039 0.784180
vt 1.398438 0.879883
vt 1.413086 0.882812
vt 1.395508 0.921875
vt 1.380859 0.879395
vt 1.412109 0.921875
vt 1.375977 0.921875
vt 1.412109 0.949219
vt 1.384766 0.952148
vt 1.401367 0.951660
vt 1.412109 0.974121
vt 1.411133 0.992676
vt 1.439453 0.952637
vt 1.422852 0.951660
vt 1.429688 0.922363
vt 1.412109 0.949219
vt 1.449219 0.923340
vt 1.412109 0.921875
vt 1.446289 0.880371
vt 1.413086 0.882812
vt 1.427734 0.880371
vt 1.422852 0.784180
vt 1.415039 0.784180
vt 1.888672 0.033081
vt 1.916992 0.035217
vt 1.910156 0.050201
vt 1.934570 0.051453
vt 1.938477 0.078735
vt 1.888672 0.045135
vt 1.863281 0.045715
vt 1.904297 0.063843
vt 1.883789 0.054871
vt 1.879883 0.064819
vt 1.870117 0.071899
vt 1.891602 0.092468
vt 1.898438 0.077332
vt 1.915039 0.093994
vt 1.401367 0.356201
vt 1.384766 0.364502
vt 1.377930 0.322266
vt 1.418945 0.385986
vt 1.397461 0.326416
vt 1.425781 0.331543
vt 1.408203 0.299316
vt 1.395508 0.285645
vt 1.433594 0.276611
vt 1.423828 0.368896
vt 1.447266 0.361816
vt 1.460938 0.376709
vt 1.477539 0.337402
vt 1.432617 0.294678
vt 1.451172 0.306885
vt 1.467773 0.296631
vt 1.458984 0.334961
vt 1.204102 0.881348
vt 1.286133 0.919434
vt 1.263672 0.940430
vt 1.237305 0.955566
vt 1.226562 0.867188
vt 1.208008 0.964844
vt 1.176758 0.806641
vt 1.178711 0.967773
vt 1.177734 0.887695
vt 1.151367 0.881836
vt 1.127930 0.868164
vt 1.148438 0.965820
vt 1.069336 0.921875
vt 1.119141 0.957031
vt 1.092773 0.942383
vt 1.620117 0.321289
vt 1.612305 0.363770
vt 1.596680 0.355469
vt 1.580078 0.385254
vt 1.600586 0.325684
vt 1.572266 0.331055
vt 1.589844 0.298584
vt 1.601562 0.284912
vt 1.564453 0.276123
vt 1.574219 0.368408
vt 1.550781 0.361572
vt 1.537109 0.376465
vt 1.519531 0.337402
vt 1.565430 0.294189
vt 1.546875 0.306641
vt 1.530273 0.296387
vt 1.539062 0.334717
vt 1.685547 0.927734
vt 1.750000 0.966309
vt 1.708984 0.909668
vt 1.666992 0.888672
vt 1.683594 0.959961
vt 1.643555 0.942871
vt 1.630859 0.921387
vt 1.643555 0.966309
vt 1.574219 0.921875
vt 1.628906 0.584961
vt 1.697266 0.616211
vt 1.675781 0.636719
vt 1.720703 0.652832
vt 1.695312 0.583984
vt 1.737305 0.596680
vt 1.752930 0.616699
vt 1.734375 0.573242
vt 1.808594 0.609863
vt 1.460938 0.376709
vt 1.477539 0.337402
vt 1.485352 0.338135
vt 1.467773 0.296631
vt 1.470703 0.388672
vt 1.476562 0.286377
vt 1.418945 0.385986
vt 1.433594 0.276611
vt 1.418945 0.403320
vt 1.436523 0.266113
vt 1.395508 0.285645
vt 1.387695 0.278076
vt 1.377930 0.322266
vt 1.369141 0.320557
vt 1.384766 0.364502
vt 1.367188 0.368652
vn -0.4838 0.0110 -0.8751
vn -0.4215 0.1118 -0.8999
vn -0.4710 0.0327 -0.8815
vn -0.5171 0.0293 -0.8554
vn -0.4912 0.0176 -0.8709
vn -0.5283 0.0873 -0.8446
vn -0.5708 0.0735 -0.8178
vn 0.4215 0.1118 -0.8999
vn 0.4838 0.0110 -0.8751
vn 0.4710 0.0327 -0.8815
vn 0.5171 0.0293 -0.8554
vn 0.4912 0.0176 -0.8709
vn 0.5283 0.0873 -0.8446
vn 0.5708 0.0735 -0.8178
vn 0.9279 0.3133 -0.2020
vn 0.8722 0.4043 -0.2753
vn 0.8722 0.4043 -0.2752
vn 0.9376 0.2827 -0.2026
vn 0.6802 0.7301 -0.0657
vn 0.5353 0.8067 0.2503
vn 0.2829 0.9579 -0.0487
vn 0.7039 0.6808 -0.2023
vn 0.2718 0.9402 0.2052
vn 0.2962 0.9356 -0.1919
vn -0.1186 0.9708 0.2088
vn -0.2718 0.9399 -0.2066
vn -0.3437 0.9340 -0.0977
vn -0.6813 0.7320 -0.0000
vn -0.6952 0.7188 -0.0000
vn -0.2718 0.9399 0.2066
vn -0.3437 0.9340 0.0977
vn 0.2829 0.9579 0.0487
vn -0.1186 0.9708 -0.2088
vn 0.2961 0.9357 0.1919
vn 0.2718 0.9402 -0.2052
vn 0.6774 0.7042 0.2127
vn 0.5351 0.8071 -0.2497
vn 0.6591 0.7493 0.0645
vn 0.9331 0.2710 0.2365
vn 0.9240 0.2987 0.2389
vn 0.8618 0.3778 0.3385
vn -0.1107 0.1555 -0.9816
vn -0.5543 0.2275 -0.8006
vn -0.5543 0.2274 0.8007
vn -0.1108 0.1555 0.9816
vn 0.1470 -0.1463 0.9783
vn -0.4818 -0.1465 0.8639
vn -0.5543 0.2274 -0.8006
vn -0.4817 -0.1468 -0.8639
vn -0.4698 -0.1099 -0.8759
vn -0.4693 -0.1092 0.8762
vn -0.5526 -0.4162 -0.7221
vn -0.5536 -0.4166 0.7211
vn 0.4122 0.0330 0.9105
vn 0.5464 0.0014 0.8375
vn 0.6316 -0.2376 0.7380
vn 0.5608 -0.2520 0.7887
vn 0.4588 0.2213 0.8605
vn 0.1470 -0.1464 -0.9783
vn 0.5609 -0.2520 -0.7886
vn 0.5608 -0.2520 -0.7887
vn -0.4000 -0.1049 0.9105
vn 0.4588 0.2213 -0.8605
vn -0.0664 -0.0268 0.9974
vn -0.7270 -0.2213 0.6500
vn 0.6025 0.3647 0.7100
vn 0.8651 0.5016 0.0000
vn 0.6025 0.3647 -0.7099
vn -0.1108 0.1555 -0.9816
vn -0.4000 -0.1049 -0.9105
vn -0.9492 -0.3145 0.0000
vn -0.7270 -0.2214 -0.6500
vn -0.0664 -0.0268 -0.9974
vn 0.1470 -0.1463 -0.9783
vn -0.4818 -0.1468 -0.8639
vn 0.4124 0.0328 -0.9104
vn 0.1470 -0.1464 0.9782
vn -0.4699 -0.1099 -0.8759
vn 0.5480 0.0014 -0.8365
vn 0.6317 -0.2352 -0.7387
vn -0.0000 0.7708 -0.6371
vn -0.1974 0.9603 -0.1974
vn -0.0000 0.9603 -0.2791
vn -0.4505 0.7707 -0.4505
vn 0.0000 0.1296 -0.9916
vn -0.6986 0.1329 -0.7031
vn -0.9883 0.1511 -0.0220
vn -0.6371 0.7707 -0.0000
vn -0.2791 0.9603 -0.0000
vn -0.1974 0.9603 0.1974
vn -0.4505 0.7707 0.4505
vn -0.6907 0.1572 0.7058
vn -0.0000 0.1478 0.9890
vn -0.0000 0.7707 0.6371
vn 0.0000 0.9603 0.2791
vn 0.1974 0.9603 0.1974
vn 0.4505 0.7707 0.4505
vn 0.6907 0.1572 0.7058
vn 0.9883 0.1511 -0.0220
vn 0.6371 0.7707 0.0000
vn 0.2791 0.9603 -0.0000
vn 0.1974 0.9603 -0.1974
vn 0.4505 0.7707 -0.4505
vn 0.6986 0.1329 -0.7031
vn 0.4129 0.5087 0.7555
vn 0.1746 0.4593 0.8709
vn 0.3757 0.5031 0.7783
vn 0.6735 0.3543 0.6488
vn 0.7099 0.2979 0.6382
vn 0.7770 -0.0794 0.6245
vn 0.7771 -0.0789 0.6244
vn 0.5546 -0.3781 0.7412
vn 0.5274 -0.4004 0.7494
vn 0.3255 -0.4892 0.8091
vn 0.3402 -0.4894 0.8030
vn 0.2267 -0.3581 0.9057
vn 0.2168 -0.3144 0.9242
vn 0.1896 -0.1332 0.9728
vn 0.1912 -0.1304 0.9729
vn 0.2087 -0.0985 0.9730
vn 0.0000 -0.6780 -0.7350
vn 0.0000 -0.8591 -0.5118
vn -0.3619 -0.8591 -0.3619
vn -0.5197 -0.6781 -0.5197
vn -0.0000 -0.3698 -0.9291
vn -0.7350 -0.6780 0.0000
vn -0.5118 -0.8591 0.0000
vn -0.3619 -0.8591 0.3619
vn -0.6548 -0.3715 -0.6581
vn 0.0000 -0.2108 -0.9775
vn -0.9270 -0.3751 0.0010
vn -0.5197 -0.6781 0.5197
vn -0.6858 -0.2146 -0.6954
vn 0.0000 -0.1094 -0.9940
vn -0.9653 -0.2421 -0.0978
vn -0.7000 -0.1105 -0.7055
vn -0.0000 -0.0667 -0.9978
vn 0.0000 -0.6780 0.7350
vn 0.0000 -0.8591 0.5118
vn 0.3619 -0.8591 0.3619
vn -0.6452 -0.3686 0.6692
vn 0.0000 -0.3575 0.9339
vn 0.5197 -0.6781 0.5197
vn 0.0000 -0.2936 0.9559
vn -0.6525 -0.3090 0.6919
vn 0.6452 -0.3686 0.6692
vn 0.7350 -0.6780 -0.0000
vn 0.5118 -0.8591 0.0000
vn 0.3619 -0.8591 -0.3619
vn 0.9270 -0.3751 0.0010
vn 0.5197 -0.6781 -0.5197
vn 0.6548 -0.3715 -0.6581
vn 0.9653 -0.2421 -0.0978
vn 0.6858 -0.2146 -0.6954
vn 0.7000 -0.1105 -0.7055
vn 0.6525 -0.3090 0.6919
vn 0.9806 -0.1162 -0.1579
vn 0.7005 -0.0631 -0.7109
vn -0.0000 0.1295 -0.9916
vn 0.9940 -0.0421 -0.1012
vn 0.9316 -0.2096 0.2969
vn 0.3575 -0.2758 0.8922
vn 0.9677 -0.1205 0.2216
vn 0.9543 -0.0186 0.2982
vn 0.2180 -0.2283 0.9489
vn 0.0000 -0.1139 0.9935
vn 0.1526 -0.1121 0.9819
vn 0.2515 0.0093 0.9678
vn -0.0000 -0.0172 0.9999
vn 0.3406 0.0544 0.9386
vn 0.7083 -0.0112 0.7058
vn -0.7083 -0.0112 0.7058
vn -0.2180 -0.2283 0.9489
vn -0.1526 -0.1121 0.9819
vn -0.3575 -0.2758 0.8922
vn -0.2515 0.0093 0.9678
vn -0.3406 0.0544 0.9386
vn -0.9316 -0.2096 0.2969
vn -0.9543 -0.0186 0.2982
vn -0.9806 -0.1162 -0.1579
vn -0.9677 -0.1205 0.2216
vn -0.9940 -0.0421 -0.1012
vn -0.7005 -0.0631 -0.7109
vn -0.7054 -0.0663 -0.7057
vn 0.7052 -0.0727 -0.7052
vn -0.7052 -0.0727 -0.7052
vn 0.7057 -0.0655 -0.7055
vn 0.7069 0.0198 -0.7070
vn -0.7072 0.0187 -0.7068
vn -0.5672 0.5971 -0.5672
vn 0.5665 0.5968 -0.5683
vn 0.7052 -0.0727 0.7052
vn 0.5675 0.5965 0.5675
vn 0.7057 -0.0655 0.7055
vn -0.7052 -0.0727 0.7052
vn 0.7068 0.0197 0.7072
vn -0.7054 -0.0663 0.7057
vn -0.7054 -0.0662 -0.7057
vn -0.7073 0.0186 0.7067
vn -0.5682 0.5968 0.5666
vn -0.9333 0.3182 -0.1662
vn -0.9370 0.3240 -0.1308
vn -0.8162 0.5767 0.0357
vn -0.6674 0.6304 0.3965
vn -0.3255 0.9447 -0.0402
vn -0.7929 0.5751 -0.2012
vn -0.3244 0.9141 0.2434
vn -0.3328 0.9159 -0.2246
vn 0.0551 0.9750 0.2152
vn 0.2384 0.9388 -0.2487
vn 0.2993 0.9475 -0.1123
vn 0.6826 0.7307 -0.0128
vn 0.6951 0.7188 -0.0130
vn 0.2475 0.9388 0.2397
vn 0.3032 0.9475 0.1010
vn -0.3238 0.9447 0.0523
vn 0.0471 0.9750 -0.2172
vn -0.3242 0.9159 0.2368
vn -0.3334 0.9140 -0.2311
vn -0.7849 0.5751 0.2307
vn -0.6818 0.6303 -0.3713
vn -0.8169 0.5767 -0.0051
vn -0.9265 0.3182 0.2010
vn -0.9314 0.3240 0.1657
vn 0.2596 0.9511 0.1672
vn 0.3213 0.9439 -0.0757
vn 0.0158 0.9915 -0.1290
vn 0.2668 0.8125 -0.5183
vn -0.0089 0.8848 -0.4659
vn -0.0075 0.9923 0.1238
vn 0.0017 0.9896 0.1439
vn -0.0065 0.9924 -0.1229
vn 0.0004 0.9989 0.0460
vn -0.0077 0.9926 0.1208
vn -0.2629 0.9502 0.1675
vn -0.3342 0.9396 -0.0737
vn -0.0294 0.9912 -0.1288
vn -0.2844 0.8090 -0.5145
vn -0.8104 0.3669 0.4568
vn -0.8584 0.4713 0.2022
vn -0.9973 -0.0563 0.0476
vn -0.2624 0.8499 0.4570
vn -0.9357 -0.0922 0.3406
vn -0.3942 -0.1407 0.9082
vn -0.7519 -0.5597 0.3483
vn -0.7926 -0.6049 0.0764
vn -0.1535 -0.9518 0.2654
vn -0.2966 0.6345 0.7138
vn 0.2734 0.4014 0.8741
vn 0.5150 0.5288 0.6747
vn 0.7294 -0.0297 0.6834
vn -0.2334 -0.8066 0.5431
vn 0.3090 -0.5640 0.7658
vn 0.5754 -0.5951 0.5611
vn 0.4623 -0.0803 0.8831
vn -0.9343 0.3565 -0.0025
vn -0.0001 0.3449 -0.9386
vn -0.6842 0.2905 -0.6690
vn -0.9559 0.2936 -0.0001
vn -0.0000 0.3257 -0.9455
vn -0.6838 0.2906 0.6693
vn -0.0026 1.0000 0.0091
vn -0.0001 0.3449 0.9387
vn 0.0000 0.3258 0.9454
vn 0.9343 0.3563 -0.0025
vn 0.6838 0.2906 0.6693
vn -0.0001 0.3450 -0.9386
vn 0.9560 0.2935 -0.0001
vn 0.6842 0.2905 -0.6690
vn 0.9973 -0.0562 0.0476
vn 0.8584 0.4713 0.2022
vn 0.8104 0.3669 0.4568
vn 0.2624 0.8499 0.4570
vn 0.9357 -0.0922 0.3406
vn 0.3942 -0.1407 0.9082
vn 0.7519 -0.5597 0.3483
vn 0.7926 -0.6049 0.0764
vn 0.1535 -0.9518 0.2654
vn 0.2966 0.6345 0.7138
vn -0.2734 0.4014 0.8741
vn -0.5150 0.5288 0.6747
vn -0.7294 -0.0297 0.6834
vn 0.2334 -0.8066 0.5431
vn -0.3090 -0.5640 0.7658
vn -0.5754 -0.5951 0.5611
vn -0.4623 -0.0803 0.8831
vn 0.4603 0.0589 0.8858
vn 0.7939 -0.0309 0.6073
vn 0.3445 0.7465 0.5692
vn -0.1095 0.1000 0.9889
vn 0.8271 -0.4813 0.2901
vn 0.4285 -0.3112 0.8482
vn -0.1266 0.1227 0.9843
vn 0.8234 -0.4691 0.3193
vn 0.3078 -0.3589 0.8812
vn -0.7939 -0.0308 0.6073
vn -0.4602 0.0589 0.8858
vn -0.3445 0.7465 0.5692
vn 0.1095 0.1000 0.9889
vn -0.8271 -0.4813 0.2901
vn -0.4285 -0.3112 0.8482
vn 0.1266 0.1227 0.9843
vn -0.8234 -0.4691 0.3193
vn -0.3078 -0.3589 0.8812
vn -0.5546 -0.3781 0.7412
vn -0.7771 -0.0789 0.6244
vn -0.7770 -0.0794 0.6245
vn -0.7099 0.2979 0.6382
vn -0.5274 -0.4004 0.7494
vn -0.6735 0.3543 0.6488
vn -0.3255 -0.4892 0.8091
vn -0.3757 0.5031 0.7783
vn -0.3402 -0.4894 0.8029
vn -0.4129 0.5087 0.7555
vn -0.1994 0.1953 0.9603
vn -0.2019 0.1517 0.9676
vn -0.1912 -0.1304 0.9729
vn -0.1896 -0.1332 0.9728
vn -0.2267 -0.3581 0.9057
vn -0.2168 -0.3144 0.9242
usemtl LightningReed
s 1
f 3/1/1 2/2/2 1/3/3
f 4/4/4 3/1/1 1/3/3
f 1/3/3 5/5/5 4/4/4
f 4/4/4 5/5/5 6/6/6
f 7/7/7 4/4/4 6/6/6
f 10/8/8 9/9/9 8/10/10
f 8/10/10 9/9/9 11/11/11
f 11/11/11 12/12/12 8/10/10
f 12/12/12 11/11/11 13/13/13
f 11/11/11 14/14/14 13/13/13
f 17/15/15 16/16/16 15/17/17
f 15/17/17 18/18/18 17/15/15
f 17/15/15 18/18/18 19/19/19
f 19/19/19 20/20/20 17/15/15
f 20/20/20 19/19/19 21/21/21
f 18/18/18 22/22/22 19/19/19
f 21/21/21 19/19/19 22/22/22
f 21/21/21 23/23/23 20/20/20
f 22/22/22 24/24/24 21/21/21
f 23/23/23 21/21/21 25/25/25
f 21/21/21 24/24/24 26/26/26
f 27/27/27 25/25/25 21/21/21
f 26/26/26 27/27/27 21/21/21
f 28/28/28 25/25/25 27/27/27
f 28/28/28 27/27/27 26/26/26
f 26/26/26 29/29/29 28/28/28
f 30/30/30 28/28/28 29/29/29
f 30/30/30 31/31/31 28/28/28
f 32/32/32 31/31/31 30/30/30
f 31/31/31 33/33/33 28/28/28
f 33/33/33 31/31/31 32/32/32
f 34/34/34 32/32/32 30/30/30
f 32/32/32 35/35/35 33/33/33
f 32/32/32 34/34/34 36/36/36
f 37/37/37 35/35/35 32/32/32
f 36/36/36 38/38/38 32/32/32
f 38/38/38 37/37/37 32/32/32
f 38/38/38 36/36/36 39/39/39
f 37/37/37 38/38/38 40/40/40
f 39/39/39 40/40/40 38/38/38
f 41/41/41 40/40/40 39/39/39
f 40/40/40 41/41/41 42/42/41
f 45/43/42 44/44/43 43/45/44
f 46/46/45 45/43/42 43/45/44
f 46/46/45 43/45/44 47/47/46
f 48/48/47 47/47/46 43/45/44
f 43/45/44 49/49/48 48/48/47
f 49/49/48 50/50/49 48/48/47
f 48/48/47 50/50/49 51/51/50
f 51/51/50 52/52/51 48/48/47
f 51/51/50 53/53/52 52/52/51
f 52/52/51 53/53/52 54/54/53
f 48/48/47 55/55/54 47/47/46
f 55/55/54 48/48/47 52/52/51
f 52/52/51 56/56/55 55/55/54
f 54/54/53 56/56/55 52/52/51
f 54/54/53 57/57/56 56/56/55
f 47/47/46 58/58/57 46/46/45
f 46/46/45 58/58/57 59/59/58
f 47/47/46 60/60/59 58/58/57
f 60/60/59 61/61/60 58/58/57
f 58/58/57 62/62/61 59/59/58
f 46/46/45 59/59/58 63/63/62
f 62/62/61 64/64/63 59/59/58
f 65/65/64 63/63/62 59/59/58
f 65/65/64 66/66/65 63/63/62
f 65/65/64 59/59/58 67/67/66
f 68/68/67 67/67/66 59/59/58
f 68/68/67 59/59/58 64/64/63
f 69/69/68 68/68/67 64/64/63
f 72/70/69 71/71/45 70/72/62
f 70/72/62 73/73/70 72/70/69
f 74/74/71 73/73/70 70/72/62
f 74/74/71 70/72/62 75/75/65
f 74/74/71 76/76/72 73/73/70
f 77/77/73 73/73/70 76/76/72
f 77/77/73 78/78/63 73/73/70
f 72/70/69 73/73/70 78/78/63
f 77/77/73 79/79/68 78/78/63
f 78/78/63 80/80/61 72/70/69
f 72/70/69 80/80/61 81/81/74
f 81/81/74 82/82/43 72/70/69
f 82/82/43 81/81/74 83/83/75
f 81/81/74 84/84/76 83/83/75
f 84/84/76 81/81/74 85/85/77
f 86/86/78 83/83/75 84/84/76
f 87/87/54 84/84/76 85/85/77
f 84/84/76 88/88/79 86/86/78
f 88/88/79 84/84/76 87/87/54
f 89/89/52 86/86/78 88/88/79
f 87/87/54 90/90/55 88/88/79
f 88/88/79 91/91/80 89/89/52
f 91/91/80 88/88/79 90/90/55
f 90/90/55 92/92/56 91/91/80
f 95/93/81 94/94/82 93/95/83
f 96/96/84 94/94/82 95/93/81
f 96/96/84 95/93/81 97/97/85
f 97/97/85 98/98/86 96/96/84
f 96/96/84 98/98/86 99/99/87
f 94/94/82 96/96/84 100/100/88
f 99/99/87 100/100/88 96/96/84
f 100/100/88 101/101/89 94/94/82
f 102/102/90 101/101/89 100/100/88
f 103/103/91 100/100/88 99/99/87
f 103/103/91 102/102/90 100/100/88
f 99/99/87 104/104/92 103/103/91
f 103/103/91 104/104/92 105/105/93
f 102/102/90 103/103/91 106/106/94
f 105/105/93 106/106/94 103/103/91
f 106/106/94 107/107/95 102/102/90
f 108/108/96 107/107/95 106/106/94
f 109/109/97 106/106/94 105/105/93
f 106/106/94 109/109/97 108/108/96
f 105/105/93 110/110/98 109/109/97
f 111/111/99 109/109/97 110/110/98
f 108/108/96 109/109/97 112/112/100
f 111/111/99 112/112/100 109/109/97
f 112/112/100 113/113/101 108/108/96
f 114/114/102 113/113/101 112/112/100
f 115/115/103 112/112/100 111/111/99
f 112/112/100 115/115/103 114/114/102
f 111/111/99 116/116/104 115/115/103
f 117/117/85 115/115/103 116/116/104
f 115/115/103 117/117/85 118/118/81
f 114/114/102 115/115/103 118/118/81
f 118/118/81 119/119/83 114/114/102
f 122/120/105 121/121/106 120/122/106
f 120/122/106 123/123/107 122/120/105
f 124/124/108 122/120/105 123/123/107
f 123/123/107 125/125/109 124/124/108
f 126/126/110 124/124/108 125/125/109
f 125/125/109 127/127/111 126/126/110
f 128/128/112 126/126/110 127/127/111
f 126/126/110 128/128/112 129/129/113
f 129/129/113 128/128/112 130/130/114
f 130/130/114 131/131/115 129/129/113
f 131/131/115 130/130/114 132/132/116
f 132/132/116 133/133/117 131/131/115
f 134/134/118 133/133/117 132/132/116
f 132/132/116 135/135/119 134/134/118
f 136/136/120 134/134/118 135/135/119
f 135/135/119 137/137/120 136/136/120
f 140/138/121 139/139/122 138/140/123
f 138/140/123 141/141/124 140/138/121
f 142/142/125 140/138/121 141/141/124
f 138/140/123 143/143/126 141/141/124
f 138/140/123 144/144/127 143/143/126
f 143/143/126 144/144/127 145/145/128
f 141/141/124 146/146/129 142/142/125
f 147/147/130 142/142/125 146/146/129
f 148/148/131 141/141/124 143/143/126
f 146/146/129 141/141/124 148/148/131
f 145/145/128 149/149/132 143/143/126
f 148/148/131 143/143/126 149/149/132
f 146/146/129 150/150/133 147/147/130
f 150/150/133 151/151/134 147/147/130
f 146/146/129 148/148/131 152/152/135
f 152/152/135 150/150/133 146/146/129
f 153/153/136 151/151/134 150/150/133
f 153/153/136 154/154/137 151/151/134
f 155/155/138 149/149/132 145/145/128
f 145/145/128 156/156/139 155/155/138
f 155/155/138 156/156/139 157/157/140
f 149/149/132 158/158/141 148/148/131
f 152/152/135 148/148/131 158/158/141
f 149/149/132 155/155/138 159/159/142
f 149/149/132 159/159/142 158/158/141
f 160/160/143 155/155/138 157/157/140
f 155/155/138 160/160/143 159/159/142
f 158/158/141 159/159/142 161/161/144
f 162/162/145 158/158/141 161/161/144
f 158/158/141 162/162/145 152/152/135
f 161/161/144 159/159/142 163/163/146
f 159/159/142 160/160/143 163/163/146
f 164/164/147 160/160/143 157/157/140
f 157/157/140 165/165/148 164/164/147
f 164/164/147 165/165/148 166/166/149
f 160/160/143 164/164/147 167/167/150
f 167/167/150 163/163/146 160/160/143
f 164/164/147 166/166/149 168/168/151
f 167/167/150 164/164/147 168/168/151
f 169/169/121 168/168/151 166/166/149
f 166/166/149 170/170/122 169/169/121
f 168/168/151 169/169/121 171/171/125
f 171/171/125 172/172/152 168/168/151
f 167/167/150 168/168/151 172/172/152
f 172/172/152 171/171/125 173/173/130
f 163/163/146 167/167/150 174/174/153
f 167/167/150 172/172/152 174/174/153
f 173/173/130 175/175/154 172/172/152
f 172/172/152 175/175/154 174/174/153
f 176/176/134 175/175/154 173/173/130
f 176/176/134 177/177/155 175/175/154
f 178/178/137 177/177/155 176/176/134
f 174/174/153 179/179/156 163/163/146
f 163/163/146 179/179/156 161/161/144
f 180/180/157 174/174/153 175/175/154
f 175/175/154 177/177/155 180/180/157
f 178/178/137 181/181/158 177/177/155
f 181/181/158 178/178/137 182/182/159
f 182/182/159 183/183/104 181/181/158
f 181/181/158 183/183/104 184/184/99
f 177/177/155 181/181/158 185/185/160
f 185/185/160 181/181/158 184/184/99
f 185/185/160 180/180/157 177/177/155
f 174/174/153 186/186/161 179/179/156
f 186/186/161 174/174/153 180/180/157
f 186/186/161 187/187/162 179/179/156
f 179/179/156 187/187/162 161/161/144
f 180/180/157 188/188/163 186/186/161
f 189/189/164 188/188/163 180/180/157
f 180/180/157 185/185/160 189/189/164
f 187/187/162 190/190/165 161/161/144
f 191/191/166 161/161/144 190/190/165
f 190/190/165 192/192/167 191/191/166
f 191/191/166 192/192/167 193/193/168
f 191/191/166 193/193/168 194/194/169
f 194/194/169 193/193/168 195/195/170
f 196/196/171 195/195/170 189/189/164
f 196/196/171 189/189/164 185/185/160
f 194/194/169 195/195/170 196/196/171
f 196/196/171 185/185/160 184/184/99
f 184/184/99 197/197/98 196/196/171
f 196/196/171 197/197/98 198/198/93
f 198/198/93 194/194/169 196/196/171
f 199/199/172 194/194/169 198/198/93
f 200/200/92 199/199/172 198/198/93
f 199/199/172 200/200/92 201/201/87
f 202/202/173 161/161/144 191/191/166
f 191/191/166 203/203/174 202/202/173
f 161/161/144 202/202/173 204/204/175
f 205/205/176 203/203/174 191/191/166
f 194/194/169 205/205/176 191/191/166
f 204/204/175 162/162/145 161/161/144
f 206/206/177 205/205/176 194/194/169
f 199/199/172 206/206/177 194/194/169
f 204/204/175 207/207/178 162/162/145
f 207/207/178 152/152/135 162/162/145
f 206/206/177 199/199/172 208/208/179
f 209/209/180 152/152/135 207/207/178
f 207/207/178 210/210/181 209/209/180
f 209/209/180 210/210/181 208/208/179
f 150/150/133 152/152/135 209/209/180
f 209/209/180 153/153/136 150/150/133
f 208/208/179 199/199/172 211/211/182
f 208/208/179 211/211/182 209/209/180
f 153/153/136 209/209/180 211/211/182
f 201/201/87 211/211/182 199/199/172
f 211/211/182 212/212/183 153/153/136
f 212/212/183 211/211/182 201/201/87
f 212/212/183 154/154/137 153/153/136
f 201/201/87 213/213/86 212/212/183
f 214/214/159 154/154/137 212/212/183
f 212/212/183 213/213/86 214/214/159
f 217/215/184 216/216/185 215/217/186
f 217/215/184 218/218/187 216/216/185
f 219/219/188 218/218/187 217/215/184
f 217/215/184 220/220/189 219/219/188
f 221/221/190 219/219/188 220/220/189
f 221/221/190 222/222/191 219/219/188
f 218/218/187 223/223/192 216/216/185
f 219/219/188 222/222/191 224/224/193
f 223/223/192 218/218/187 225/225/194
f 219/219/188 225/225/194 218/218/187
f 226/226/195 223/223/192 225/225/194
f 224/224/193 227/227/196 219/219/188
f 225/225/194 219/219/188 227/227/196
f 226/226/195 225/225/194 228/228/197
f 228/228/197 225/225/194 227/227/196
f 229/229/186 226/226/195 228/228/197
f 228/228/197 230/230/198 229/229/186
f 227/227/196 224/224/193 231/231/199
f 228/228/197 227/227/196 231/231/199
f 230/230/198 228/228/197 231/231/199
f 224/224/193 232/232/200 231/231/199
f 231/231/199 233/233/189 230/230/198
f 231/231/199 232/232/200 234/234/190
f 234/234/190 233/233/189 231/231/199
f 237/235/201 236/236/202 235/237/203
f 236/236/202 238/238/204 235/237/203
f 239/239/205 235/237/203 238/238/204
f 235/237/203 240/240/206 237/235/201
f 239/239/205 240/240/206 235/237/203
f 241/241/207 239/239/205 238/238/204
f 240/240/206 239/239/205 242/242/208
f 239/239/205 241/241/207 243/243/209
f 244/244/210 242/242/208 239/239/205
f 243/243/209 245/245/211 239/239/205
f 245/245/211 244/244/210 239/239/205
f 245/245/211 243/243/209 246/246/212
f 244/244/210 245/245/211 246/246/212
f 244/244/210 246/246/212 247/247/213
f 248/248/214 247/247/213 246/246/212
f 246/246/212 249/249/215 248/248/214
f 250/250/216 248/248/214 249/249/215
f 246/246/212 251/251/217 249/249/215
f 250/250/216 249/249/215 251/251/217
f 248/248/214 250/250/216 252/252/218
f 251/251/217 253/253/219 250/250/216
f 252/252/218 250/250/216 254/254/220
f 250/250/216 253/253/219 255/255/221
f 250/250/216 256/256/222 254/254/220
f 255/255/221 256/256/222 250/250/216
f 254/254/220 256/256/222 257/257/223
f 258/258/224 256/256/222 255/255/221
f 258/258/224 257/257/223 256/256/222
f 261/259/225 260/260/226 259/261/227
f 259/261/227 260/260/226 262/262/228
f 259/261/227 262/262/228 263/263/229
f 259/261/227 264/264/230 261/259/225
f 261/259/225 264/264/230 265/265/231
f 259/261/227 263/263/229 266/266/232
f 264/264/230 259/261/227 266/266/232
f 264/264/230 267/267/233 265/265/231
f 266/266/232 267/267/233 264/264/230
f 268/268/234 265/265/231 267/267/233
f 268/268/234 267/267/233 266/266/232
f 268/268/234 269/269/235 265/265/231
f 270/270/236 269/269/235 268/268/234
f 271/271/237 266/266/232 263/263/229
f 266/266/232 271/271/237 268/268/234
f 268/268/234 271/271/237 270/270/236
f 271/271/237 263/263/229 272/272/238
f 271/271/237 272/272/238 270/270/236
f 275/273/239 274/274/240 273/275/241
f 276/276/242 274/274/240 275/273/239
f 273/275/241 277/277/243 275/273/239
f 278/278/244 275/273/239 277/277/243
f 279/279/245 277/277/243 273/275/241
f 278/278/244 277/277/243 279/279/245
f 273/275/241 280/280/246 279/279/245
f 279/279/245 280/280/246 281/281/247
f 275/273/239 282/282/248 276/276/242
f 278/278/244 282/282/248 275/273/239
f 276/276/242 282/282/248 283/283/249
f 278/278/244 283/283/249 282/282/248
f 283/283/249 284/284/250 276/276/242
f 285/285/251 284/284/250 283/283/249
f 281/281/247 286/286/252 279/279/245
f 278/278/244 279/279/245 286/286/252
f 281/281/247 287/287/253 286/286/252
f 278/278/244 286/286/252 287/287/253
f 288/288/254 287/287/253 281/281/247
f 287/287/253 288/288/254 285/285/251
f 283/283/249 289/289/255 285/285/251
f 278/278/244 289/289/255 283/283/249
f 278/278/244 287/287/253 289/289/255
f 285/285/251 289/289/255 287/287/253
f 292/290/256 291/291/257 290/292/258
f 290/292/258 293/293/259 292/290/256
f 292/290/256 294/294/260 291/291/257
f 293/293/259 295/295/261 292/290/256
f 292/290/256 296/296/262 294/294/260
f 292/290/256 295/295/261 297/297/263
f 292/290/256 298/298/264 296/296/262
f 297/297/263 298/298/264 292/290/256
f 298/298/264 299/299/265 296/296/262
f 297/297/263 299/299/265 298/298/264
f 300/300/260 296/296/262 299/299/265
f 297/297/263 301/301/266 299/299/265
f 302/302/267 300/300/260 299/299/265
f 303/303/268 299/299/265 301/301/266
f 299/299/265 304/304/269 302/302/267
f 304/304/269 299/299/265 303/303/268
f 307/305/270 306/306/271 305/307/272
f 306/306/271 308/308/273 305/307/272
f 305/307/272 309/309/274 307/305/270
f 305/307/272 310/310/275 309/309/274
f 307/305/270 309/309/274 311/311/276
f 309/309/274 310/310/275 311/311/276
f 311/311/276 312/312/277 307/305/270
f 313/313/278 312/312/277 311/311/276
f 308/308/273 314/314/279 305/307/272
f 314/314/279 310/310/275 305/307/272
f 315/315/280 314/314/279 308/308/273
f 315/315/280 310/310/275 314/314/279
f 308/308/273 316/316/281 315/315/280
f 315/315/280 316/316/281 317/317/282
f 311/311/276 318/318/283 313/313/278
f 311/311/276 310/310/275 318/318/283
f 313/313/278 318/318/283 319/319/284
f 318/318/283 310/310/275 319/319/284
f 319/319/284 320/320/285 313/313/278
f 317/317/282 320/320/285 319/319/284
f 317/317/282 321/321/286 315/315/280
f 321/321/286 310/310/275 315/315/280
f 319/319/284 310/310/275 321/321/286
f 319/319/284 321/321/286 317/317/282
f 324/322/287 323/323/288 322/324/289
f 324/322/287 322/324/289 325/325/290
f 324/322/287 326/326/291 323/323/288
f 327/327/292 324/322/287 325/325/290
f 327/327/292 326/326/291 324/322/287
f 325/325/290 328/328/293 327/327/292
f 327/327/292 329/329/294 326/326/291
f 327/327/292 328/328/293 330/330/295
f 327/327/292 330/330/295 329/329/294
f 333/331/296 332/332/297 331/333/298
f 331/333/298 332/332/297 334/334/299
f 335/335/300 332/332/297 333/331/296
f 334/334/299 332/332/297 336/336/301
f 332/332/297 335/335/300 336/336/301
f 336/336/301 337/337/302 334/334/299
f 338/338/303 336/336/301 335/335/300
f 337/337/302 336/336/301 339/339/304
f 339/339/304 336/336/301 338/338/303
f 342/340/305 341/341/306 340/342/307
f 340/342/307 341/341/306 343/343/308
f 344/344/309 342/340/305 340/342/307
f 343/343/308 345/345/310 340/342/307
f 346/346/311 342/340/305 344/344/309
f 345/345/310 343/343/308 347/347/312
f 344/344/309 348/348/313 346/346/311
f 347/347/312 349/349/314 345/345/310
f 349/349/314 347/347/312 350/350/315
f 350/350/315 351/351/316 349/349/314
f 351/351/316 350/350/315 352/352/317
f 352/352/317 353/353/318 351/351/316
f 354/354/319 346/346/311 348/348/313
f 353/353/318 352/352/317 354/354/319
f 348/348/313 355/355/320 354/354/319
f 354/354/319 355/355/320 353/353/318
